<?xml version="1.0" encoding="UTF-8"?>
<svg xmlns="http://www.w3.org/2000/svg" xmlns:xlink="http://www.w3.org/1999/xlink" version="1.1" viewBox="0 0 2001.56 1080">
  <!-- Generator: Adobe Illustrator 30.1.0, SVG Export Plug-In . SVG Version: 2.1.1 Build 136)  -->
  <defs>
    <style>
      .st0 {
        fill: none;
      }

      .st1, .st2 {
        fill: #ca401c;
      }

      .st3 {
        fill: #d6f2dd;
      }

      .st4 {
        fill: #f8b79f;
      }

      .st5 {
        fill: #ff9ca2;
      }

      .st6 {
        isolation: isolate;
      }

      .st7, .st8 {
        fill: #60acbc;
      }

      .st9 {
        fill: #f9c16f;
      }

      .st10 {
        fill: #5d8567;
      }

      .st11 {
        fill: #e1f8dd;
      }

      .st12 {
        fill: #df6b21;
      }

      .st13 {
        fill: #6f5578;
      }

      .st14, .st15 {
        fill: #f9b85b;
      }

      .st14, .st2, .st8 {
        mix-blend-mode: multiply;
      }

      .st16 {
        fill: #da5500;
      }

      .st17 {
        fill: #6f9878;
      }

      .st18 {
        fill: #fce6cb;
      }

      .st19 {
        fill: #457350;
      }

      .st20 {
        fill: #81a589;
      }

      .st21 {
        fill: #f9c270;
      }

      .st22 {
        fill: #5d8566;
      }

      .st23 {
        clip-path: url(#clippath);
      }
    </style>
    <clipPath id="clippath">
      <rect class="st0" width="1618.15" height="1080"/>
    </clipPath>
  </defs>
  <g class="st6">
    <g id="BACKGROUND">
      <rect class="st18" width="2001.56" height="1080"/>
    </g>
    <g id="OBJECTS">
      <g>
        <g>
          <path class="st12" d="M1094.93,65.96c-.54,2.16-.83,3.63-.84,6.21v74.81c.01,2.59.3,4.05.84,6.21.54-2.16.83-3.63.84-6.21v-74.81c-.01-2.59-.3-4.05-.84-6.21Z"/>
          <path class="st12" d="M1059.14,110.7c2.16.54,3.63.83,6.21.84h30.14s16.19,0,25.17,0c1.98,0,3.2,0,3.84,0,2.59-.01,4.05-.3,6.21-.84-2.16-.54-3.63-.83-6.21-.84-.64,0-1.86,0-3.84,0-8.98,0-25.17,0-25.17,0h-30.14c-2.59.01-4.05.3-6.21.84Z"/>
          <path class="st12" d="M1068.09,83.85c1.11,1.93,1.91,3.19,3.69,5.07,3.44,3.6,20.7,21.64,20.7,21.64,0,0,11.11,11.62,17.27,18.06,1.37,1.43,2.22,2.31,2.66,2.77,1.8,1.86,3.02,2.72,4.9,3.91-1.1-1.93-1.91-3.19-3.69-5.07-.44-.46-1.29-1.35-2.65-2.78-6.16-6.44-17.27-18.05-17.27-18.05,0,0-17.25-18.03-20.7-21.64-1.8-1.86-3.02-2.72-4.9-3.91Z"/>
          <path class="st12" d="M1070.33,130.83c2.01-.95,3.33-1.66,5.34-3.28.34-.28.89-.73,2.04-1.66,5.36-4.39,18.06-14.78,18.06-14.78,0,0,10.63-8.69,16.53-13.51,1.53-1.25,2.47-2.03,2.97-2.44,1.99-1.65,2.94-2.8,4.28-4.59-2.01.95-3.33,1.66-5.34,3.28-.5.4-1.44,1.18-2.98,2.43-5.89,4.82-16.52,13.52-16.52,13.52,0,0-12.7,10.39-18.06,14.77-1.14.94-1.7,1.39-2.03,1.67-1.99,1.65-2.94,2.8-4.28,4.59Z"/>
        </g>
        <g>
          <path class="st12" d="M1456.88,694.83c-.54,2.16-.83,3.63-.84,6.21v28.47s0,15.21,0,23.64c0,1.98,0,3.2,0,3.84.01,2.59.3,4.05.84,6.21.54-2.16.83-3.63.84-6.21,0-.64,0-1.86,0-3.84,0-8.43,0-23.64,0-23.64v-28.47c-.01-2.59-.3-4.05-.84-6.21Z"/>
          <path class="st12" d="M1428.83,729.89c2.16.54,3.63.83,6.21.84.44,0,1.15,0,2.63,0,5.77,0,19.43,0,19.43,0,0,0,11.43,0,17.77,0,1.98,0,3.2,0,3.84,0,2.59-.01,4.05-.3,6.21-.84-2.16-.54-3.63-.83-6.21-.84-.64,0-1.86,0-3.84,0-6.34,0-17.77,0-17.77,0,0,0-13.66,0-19.43,0-1.48,0-2.19,0-2.63,0-2.59.01-4.05.3-6.21.84Z"/>
          <path class="st12" d="M1435.85,708.85c1.11,1.93,1.91,3.19,3.69,5.07.3.32.79.83,1.82,1.91,3.95,4.13,13.32,13.92,13.32,13.92,0,0,7.84,8.2,12.18,12.74,1.37,1.43,2.22,2.31,2.66,2.77,1.8,1.86,3.02,2.72,4.9,3.91-1.1-1.93-1.91-3.19-3.69-5.07-.44-.46-1.29-1.35-2.65-2.78-4.35-4.54-12.19-12.73-12.19-12.73,0,0-9.36-9.79-13.31-13.93-1.03-1.07-1.52-1.58-1.82-1.9-1.8-1.86-3.02-2.72-4.9-3.91Z"/>
          <path class="st12" d="M1437.6,745.67c2.01-.95,3.33-1.66,5.34-3.28.34-.28.89-.73,2.04-1.66,3.71-3.04,12.5-10.23,12.5-10.23,0,0,7.36-6.02,11.44-9.35,1.53-1.25,2.47-2.03,2.97-2.44,1.99-1.65,2.94-2.8,4.28-4.59-2.01.95-3.33,1.66-5.34,3.28-.5.4-1.44,1.18-2.98,2.43-4.08,3.34-11.43,9.36-11.43,9.36,0,0-8.79,7.19-12.5,10.23-1.14.94-1.7,1.39-2.03,1.67-1.99,1.65-2.94,2.8-4.28,4.59Z"/>
        </g>
        <g>
          <path class="st12" d="M1023.78,623.43c-.54,2.16-.83,3.63-.84,6.21v62.5c.01,2.59.3,4.05.84,6.21.54-2.16.83-3.63.84-6.21v-62.5c-.01-2.59-.3-4.05-.84-6.21Z"/>
          <path class="st12" d="M993.04,661.85c2.16.54,3.63.83,6.21.84.44,0,1.15,0,2.63,0,6.6,0,22.23,0,22.23,0,0,0,13.09,0,20.34,0,1.98,0,3.2,0,3.84,0,2.59-.01,4.05-.3,6.21-.84-2.16-.54-3.63-.83-6.21-.84-.64,0-1.86,0-3.84,0-7.26,0-20.34,0-20.34,0,0,0-15.63,0-22.23,0-1.48,0-2.19,0-2.63,0-2.59.01-4.05.3-6.21.84Z"/>
          <path class="st12" d="M1000.72,638.8c1.11,1.93,1.91,3.19,3.69,5.07.3.32.79.83,1.82,1.91,4.53,4.73,15.25,15.94,15.25,15.94,0,0,8.97,9.39,13.95,14.59,1.37,1.43,2.22,2.31,2.66,2.77,1.8,1.86,3.02,2.72,4.9,3.91-1.1-1.93-1.91-3.19-3.69-5.07-.44-.46-1.29-1.35-2.65-2.78-4.98-5.2-13.96-14.58-13.96-14.58,0,0-10.72-11.21-15.25-15.95-1.03-1.07-1.52-1.58-1.82-1.9-1.8-1.86-3.02-2.72-4.9-3.91Z"/>
          <path class="st12" d="M1002.64,679.14c2.01-.95,3.33-1.66,5.34-3.28.34-.28.89-.73,2.04-1.66,4.28-3.51,14.43-11.81,14.43-11.81,0,0,8.5-6.95,13.21-10.8,1.53-1.25,2.47-2.03,2.97-2.44,1.99-1.65,2.94-2.8,4.28-4.59-2.01.95-3.33,1.66-5.34,3.28-.5.4-1.44,1.18-2.98,2.43-4.71,3.85-13.2,10.81-13.2,10.81,0,0-10.15,8.3-14.44,11.81-1.14.94-1.7,1.39-2.03,1.67-1.99,1.65-2.94,2.8-4.28,4.59Z"/>
        </g>
        <g>
          <path class="st12" d="M612.03,71.83c.32,2.2.6,3.67,1.57,6.07,2,4.91,12.01,29.47,12.01,29.47,0,0,9.61,23.58,11.53,28.29.99,2.39,1.81,3.64,3.12,5.44-.32-2.2-.6-3.67-1.57-6.07-1.92-4.71-11.53-28.29-11.53-28.29,0,0-10.01-24.57-12.01-29.47-.99-2.39-1.81-3.64-3.12-5.44Z"/>
          <path class="st12" d="M598.08,118.94c2.2-.32,3.67-.6,6.07-1.57.41-.16,1.07-.43,2.44-.99,6.1-2.49,20.54-8.37,20.54-8.37,0,0,12.09-4.92,18.8-7.65,1.83-.75,2.96-1.21,3.55-1.45,2.39-.99,3.64-1.81,5.44-3.12-2.2.32-3.67.6-6.07,1.57-.59.24-1.73.7-3.56,1.44-6.7,2.73-18.79,7.66-18.79,7.66,0,0-14.45,5.88-20.55,8.37-1.37.56-2.03.83-2.44,1-2.39.99-3.64,1.81-5.44,3.12Z"/>
          <path class="st12" d="M596.51,94.73c1.75,1.37,2.97,2.24,5.33,3.31.4.18,1.05.47,2.4,1.08,5.96,2.67,20.09,8.99,20.09,8.99,0,0,11.82,5.29,18.38,8.23,1.81.8,2.92,1.3,3.51,1.56,2.37,1.04,3.82,1.38,6.02,1.77-1.75-1.37-2.97-2.24-5.33-3.31-.58-.26-1.7-.76-3.5-1.57-6.56-2.93-18.38-8.22-18.38-8.22,0,0-14.13-6.32-20.09-8.99-1.35-.6-2-.89-2.4-1.07-2.37-1.04-3.82-1.38-6.02-1.77Z"/>
          <path class="st12" d="M613.48,131.31c1.5-1.64,2.46-2.79,3.71-5.06.21-.38.55-1.01,1.26-2.31,2.64-4.85,8.88-16.34,8.88-16.34,0,0,5.23-9.62,8.14-14.95.94-1.74,1.53-2.81,1.83-3.38,1.22-2.28,1.67-3.71,2.23-5.86-1.5,1.64-2.46,2.79-3.71,5.06-.31.56-.89,1.64-1.84,3.37-2.9,5.33-8.13,14.95-8.13,14.95,0,0-6.25,11.49-8.89,16.34-.71,1.3-1.04,1.93-1.25,2.31-1.22,2.28-1.67,3.71-2.23,5.86Z"/>
        </g>
        <g>
          <path class="st12" d="M1516.03,55.83c.32,2.2.6,3.67,1.57,6.07,2.99,7.33,17.95,44.07,17.95,44.07,0,0,14.14,34.71,16.97,41.64.99,2.39,1.81,3.64,3.12,5.44-.32-2.2-.6-3.67-1.57-6.07-2.82-6.93-16.97-41.64-16.97-41.64,0,0-14.97-36.73-17.95-44.07-.99-2.39-1.81-3.64-3.12-5.44Z"/>
          <path class="st12" d="M1496.46,121.94c2.2-.32,3.67-.6,6.07-1.57,5.82-2.37,34.96-14.24,34.96-14.24,0,0,27.76-11.31,33.31-13.57,2.39-.99,3.64-1.81,5.44-3.12-2.2.32-3.67.6-6.07,1.57-5.54,2.26-33.31,13.57-33.31,13.57,0,0-29.14,11.87-34.96,14.24-2.39.99-3.64,1.81-5.44,3.12Z"/>
          <path class="st12" d="M1494.24,87.96c1.75,1.37,2.97,2.24,5.33,3.31,5.7,2.55,34.23,15.32,34.23,15.32,0,0,27.2,12.17,32.63,14.6,2.37,1.04,3.82,1.38,6.02,1.77-1.75-1.37-2.97-2.24-5.33-3.31-5.43-2.43-32.63-14.6-32.63-14.6,0,0-28.53-12.77-34.23-15.32-2.37-1.04-3.82-1.38-6.02-1.77Z"/>
          <path class="st12" d="M1518.06,139.3c1.5-1.64,2.46-2.79,3.71-5.06,2.6-4.78,15.63-28.74,15.63-28.74,0,0,12.49-22.97,14.99-27.55,1.22-2.28,1.67-3.71,2.23-5.86-1.5,1.64-2.46,2.79-3.71,5.06-2.49,4.59-14.99,27.56-14.99,27.56,0,0-13.03,23.96-15.63,28.74-1.22,2.28-1.67,3.71-2.23,5.86Z"/>
        </g>
        <g>
          <path class="st12" d="M1745.76,229.11c.32,2.2.6,3.67,1.57,6.07,2.68,6.57,16.09,39.49,16.09,39.49,0,0,12.72,31.22,15.26,37.46.99,2.39,1.81,3.64,3.12,5.44-.32-2.2-.6-3.67-1.57-6.07-2.54-6.23-15.26-37.46-15.26-37.46,0,0-13.41-32.92-16.09-39.49-.99-2.39-1.81-3.64-3.12-5.44Z"/>
          <path class="st12" d="M1727.95,289.25c2.2-.32,3.67-.6,6.07-1.57,5.19-2.12,31.2-12.71,31.2-12.71,0,0,24.9-10.14,29.87-12.17,2.39-.99,3.64-1.81,5.44-3.12-2.2.32-3.67.6-6.07,1.57-4.97,2.03-29.87,12.17-29.87,12.17,0,0-26.01,10.6-31.2,12.71-2.39.99-3.64,1.81-5.44,3.12Z"/>
          <path class="st12" d="M1725.94,258.34c1.75,1.37,2.97,2.24,5.33,3.31,5.09,2.28,30.55,13.67,30.55,13.67,0,0,24.39,10.91,29.26,13.09,2.37,1.04,3.82,1.38,6.02,1.77-1.75-1.37-2.97-2.24-5.33-3.31-4.87-2.18-29.26-13.09-29.26-13.09,0,0-25.47-11.39-30.55-13.67-2.37-1.04-3.82-1.38-6.02-1.77Z"/>
          <path class="st12" d="M1747.61,305.05c1.5-1.64,2.46-2.79,3.71-5.06,2.32-4.26,13.91-25.58,13.91-25.58,0,0,7.45-13.69,11.58-21.28.94-1.74,1.53-2.81,1.83-3.38,1.22-2.28,1.67-3.71,2.23-5.86-1.5,1.64-2.46,2.79-3.71,5.06-.31.56-.89,1.64-1.84,3.37-4.13,7.59-11.57,21.29-11.57,21.29,0,0-11.6,21.32-13.91,25.58-1.22,2.28-1.67,3.71-2.23,5.86Z"/>
        </g>
        <g>
          <path class="st12" d="M1191.13,888.9c.32,2.2.6,3.67,1.57,6.07,3.37,8.26,20.22,49.63,20.22,49.63,0,0,15.87,38.95,19.04,46.73.99,2.39,1.81,3.64,3.12,5.44-.32-2.2-.6-3.67-1.57-6.07-3.17-7.78-19.04-46.73-19.04-46.73,0,0-16.85-41.37-20.22-49.63-.99-2.39-1.81-3.64-3.12-5.44Z"/>
          <path class="st12" d="M1169.42,962.24c2.2-.32,3.67-.6,6.07-1.57,6.58-2.68,39.52-16.1,39.52-16.1,0,0,31.24-12.73,37.48-15.27,2.39-.99,3.64-1.81,5.44-3.12-2.2.32-3.67.6-6.07,1.57-6.24,2.54-37.48,15.27-37.48,15.27,0,0-32.94,13.42-39.52,16.1-2.39.99-3.64,1.81-5.44,3.12Z"/>
          <path class="st12" d="M1166.96,924.54c1.75,1.37,2.97,2.24,5.33,3.31,6.44,2.88,38.7,17.32,38.7,17.32,0,0,30.61,13.69,36.72,16.43,2.37,1.04,3.82,1.38,6.02,1.77-1.75-1.37-2.97-2.24-5.33-3.31-6.11-2.73-36.72-16.43-36.72-16.43,0,0-32.26-14.44-38.7-17.32-2.37-1.04-3.82-1.38-6.02-1.77Z"/>
          <path class="st12" d="M1193.39,981.5c1.5-1.64,2.46-2.79,3.71-5.06,2.95-5.42,17.73-32.59,17.73-32.59,0,0,14.09-25.9,16.9-31.07,1.22-2.28,1.67-3.71,2.23-5.86-1.5,1.64-2.46,2.79-3.71,5.06-2.81,5.17-16.9,31.07-16.9,31.07,0,0-14.77,27.16-17.73,32.59-1.22,2.28-1.67,3.71-2.23,5.86Z"/>
        </g>
        <g>
          <path class="st12" d="M799.33,273.67c-.88,2.04-1.41,3.44-1.84,5.99-1.47,8.87-8.8,53.29-8.8,53.29,0,0-6.91,41.82-8.29,50.17-.41,2.55-.36,4.05-.18,6.27.88-2.04,1.41-3.44,1.84-5.99,1.38-8.35,8.29-50.17,8.29-50.17,0,0,7.34-44.42,8.8-53.29.41-2.55.36-4.05.18-6.27Z"/>
          <path class="st12" d="M742.05,325.17c2.04.88,3.44,1.41,5.99,1.84,7.06,1.17,42.45,7.01,42.45,7.01,0,0,33.55,5.54,40.25,6.65,2.55.41,4.05.36,6.27.18-2.04-.88-3.44-1.41-5.99-1.84-6.7-1.11-40.25-6.65-40.25-6.65,0,0-35.38-5.84-42.45-7.01-2.55-.41-4.05-.36-6.27-.18Z"/>
          <path class="st12" d="M759.8,291.52c.78,2.09,1.36,3.46,2.81,5.61,4.01,5.87,24.12,35.3,24.12,35.3,0,0,19.07,27.9,22.88,33.47,1.47,2.13,2.54,3.18,4.2,4.66-.78-2.09-1.36-3.46-2.81-5.61-3.81-5.57-22.88-33.47-22.88-33.47,0,0-20.11-29.42-24.12-35.3-1.47-2.13-2.54-3.17-4.2-4.66Z"/>
          <path class="st12" d="M752.47,354.33c2.14-.61,3.56-1.09,5.81-2.37,5.4-3.1,32.42-18.65,32.42-18.65,0,0,25.76-14.82,30.91-17.78,2.24-1.3,3.36-2.28,4.97-3.83-2.14.61-3.56,1.09-5.81,2.37-5.14,2.96-30.91,17.78-30.91,17.78,0,0-27.03,15.55-32.42,18.65-2.24,1.3-3.36,2.28-4.97,3.83Z"/>
        </g>
        <g>
          <path class="st12" d="M1688.55,862.09c.32,2.2.6,3.67,1.57,6.07,3.78,9.28,22.72,55.77,22.72,55.77,0,0,17.78,43.64,21.33,52.35.99,2.39,1.81,3.64,3.12,5.44-.32-2.2-.6-3.67-1.57-6.07-3.55-8.71-21.33-52.35-21.33-52.35,0,0-18.94-46.49-22.72-55.77-.99-2.39-1.81-3.64-3.12-5.44Z"/>
          <path class="st12" d="M1664.47,943.44c2.2-.32,3.67-.6,6.07-1.57,7.42-3.02,44.56-18.16,44.56-18.16,0,0,35.09-14.3,42.09-17.15,2.39-.99,3.64-1.81,5.44-3.12-2.2.32-3.67.6-6.07,1.57-7.01,2.85-42.09,17.15-42.09,17.15,0,0-37.14,15.13-44.56,18.16-2.39.99-3.64,1.81-5.44,3.12Z"/>
          <path class="st12" d="M1661.74,901.63c1.75,1.37,2.97,2.24,5.33,3.31,7.27,3.25,43.65,19.53,43.65,19.53,0,0,34.38,15.38,41.24,18.45,2.37,1.04,3.82,1.38,6.02,1.77-1.75-1.37-2.97-2.24-5.33-3.31-6.86-3.07-41.24-18.45-41.24-18.45,0,0-36.38-16.28-43.65-19.53-2.37-1.04-3.82-1.38-6.02-1.77Z"/>
          <path class="st12" d="M1691.05,964.8c1.5-1.64,2.46-2.79,3.71-5.06,3.34-6.13,20.04-36.84,20.04-36.84,0,0,15.85-29.14,19.02-34.96,1.22-2.28,1.67-3.71,2.23-5.86-1.5,1.64-2.46,2.79-3.71,5.06-3.17,5.82-19.02,34.96-19.02,34.96,0,0-16.7,30.71-20.04,36.84-1.22,2.28-1.67,3.71-2.23,5.86Z"/>
        </g>
      </g>
      <g class="st23">
        <g>
          <path class="st19" d="M609.56,715.42s135.04,74.05,270.07,6.53c0,0,21.78,128.5-106.72,145.93,0,0,50.09,100.19-60.98,126.32,0,0,34.85,89.3-80.59,143.75H-19.88v-418.17l629.44-4.36Z"/>
          <path class="st17" d="M398.3,549.89s132.86,119.79,272.25,87.12c0,0,4.36,139.39-119.79,126.32,0,0,41.38,137.21-102.37,106.72,0,0-10.89,126.32-154.64,87.12,0,0-10.89,141.57-156.82,82.76,0,0-4.36,108.9-152.46,67.52v-553.21l413.82-4.36Z"/>
          <path class="st19" d="M265.44,284.18s56.63,217.8,215.62,241.76c0,0-60.98,78.41-148.1,39.2,0,0-21.78,124.15-148.1,50.09,0,0-30.49,152.46-211.27,69.7v-400.75h291.85Z"/>
          <path class="st20" d="M385.23,216.66c-1.66-.26-3.16-.49-4.6-.68-1.44-.24-2.81-.52-4.21-.71-2.8-.47-5.7-.86-9.41-1.42-.97-.09-2.39-.4-4.15-.75-.88-.18-1.85-.33-2.86-.63-.93-.24-1.87-.49-2.83-.74-1.07-.25-2.11-.62-3.17-.96-1.06-.35-2.14-.66-3.2-1.05-2.11-.83-4.28-1.56-6.4-2.54-1.06-.47-2.14-.92-3.21-1.42-1.06-.52-2.12-1.05-3.2-1.57-17.12-8.6-33.82-21.75-49.46-36.78-15.65-15.09-30.37-32.11-43.9-49.5-27.07-34.81-49.55-70.92-65.59-98.58-8.01-13.85-14.41-25.62-18.87-34.21-.28-.54-.55-1.06-.81-1.57-.13-.25-.26-.51-.39-.75l-.09-.18-.05-.09-.02-.05c.98-.49-8.69,4.01-4.58,2.13l.17.39c.44,1.01.86,1.97,1.26,2.87.8,1.79,1.5,3.35,2.09,4.67,1.2,2.62,1.96,4.28,2.22,4.84h0c3.13,6.77,4.82,10.23,5.67,12.03.86,1.79.92,1.9.92,1.9,0,0,2.29,4.79,6.52,13.22,4.24,8.42,10.44,20.47,18.43,34.87,7.99,14.4,17.76,31.16,29.2,48.93,11.43,17.77,24.55,36.54,39.27,54.77,14.7,18.23,31.08,35.9,48.97,51,8.97,7.5,18.29,14.39,27.94,20.21,2.44,1.4,4.82,2.88,7.3,4.15,1.23.65,2.45,1.3,3.67,1.95,1.24.6,2.48,1.19,3.71,1.78,2.44,1.23,4.98,2.21,7.44,3.29,1.24.52,2.51.95,3.75,1.43.62.23,1.25.46,1.87.69l.93.35.34.11c2.5.77,4.75,1.56,6.69,2.06,1.94.5,3.5.9,4.54,1.17,3.88.82,6.98,1.23,9.95,1.16,2.95.07,5.78-.43,9.05-.95-3.19-1.09-5.8-1.83-8.54-2.72-2.75-.76-5.61-1.59-9.31-2.41-.99-.26-2.48-.65-4.33-1.14-1.85-.48-4.01-1.25-6.41-1.98l-.32-.1-.89-.33-1.79-.67c-1.19-.46-2.41-.87-3.61-1.37-2.37-1.05-4.82-1.98-7.18-3.17-1.19-.57-2.39-1.15-3.59-1.72-1.18-.63-2.36-1.26-3.55-1.89-2.4-1.22-4.71-2.66-7.08-4.02-9.38-5.65-18.49-12.38-27.29-19.74-17.55-14.81-33.74-32.26-48.29-50.3-14.58-18.05-27.6-36.68-38.96-54.32-11.37-17.65-21.09-34.32-29.04-48.64-7.95-14.33-14.12-26.31-18.34-34.69-4.21-8.38-6.49-13.15-6.49-13.15,0,0-.05-.11-.91-1.89-.85-1.78-2.53-5.23-5.64-11.95h0c-.26-.56-1.01-2.2-2.2-4.81-.58-1.31-1.28-2.85-2.07-4.63-.39-.89-.8-1.83-1.24-2.83l-.16-.37c4.08-1.92-5.59,2.56-4.58,2.12l.02.05.05.1.1.19c.13.25.26.51.4.77.27.52.54,1.05.82,1.59,4.51,8.67,10.93,20.49,18.98,34.41,16.12,27.8,38.68,64.07,65.96,99.16,13.63,17.53,28.49,34.72,44.38,50.04,15.89,15.26,32.92,28.71,50.71,37.66,1.11.55,2.22,1.09,3.33,1.64,1.12.52,2.25.99,3.36,1.48,2.21,1.02,4.49,1.8,6.7,2.66,1.11.41,2.25.74,3.37,1.11,1.12.35,2.22.74,3.35,1.01,1.02.26,2.02.52,3,.78,1.07.31,2.11.47,3.04.66,1.87.36,3.38.68,4.43.77,3.97.56,7.15.51,10.11.13,1.48-.24,2.91-.48,4.36-.86,1.45-.43,2.92-.92,4.48-1.46Z"/>
          <path class="st22" d="M269.8,305.96c.98,6.61,2.01,11.04,5.31,18.11.46.95,1.14,2.38,1.99,4.15.43.88.91,1.85,1.42,2.89.77,1.53,1.57,3.11,2.39,4.74.88,1.69,1.78,3.43,2.7,5.21,7.44,14.2,17.01,30.53,27.12,45.54,10.06,15.04,20.66,28.73,28.97,38.42,4.14,4.86,7.66,8.76,10.15,11.44,1.25,1.34,2.23,2.38,2.89,3.09.66.71,1.03,1.08,1.03,1.08,0,0,1.44,1.48,3.98,4.1,2.59,2.58,6.3,6.31,11.03,10.61,9.39,8.66,22.81,19.77,38.29,29.37,7.72,4.81,15.92,9.26,24.17,13.03,1.03.47,2.06.94,3.08,1.4,1.04.43,2.07.87,3.1,1.3,1.03.43,2.05.85,3.07,1.28,1.03.39,2.05.78,3.07,1.16,1.02.38,2.03.76,3.03,1.14,1.01.34,2.02.68,3.02,1.02,1,.34,1.98.67,2.96,1,.93.28,1.85.56,2.75.83,1.25.37,2.44.73,3.55,1.06,1.13.29,2.18.57,3.14.82,1.92.49,3.46.92,4.51,1.12,1.92.42,3.65.73,5.26.97,1.62.19,3.13.29,4.6.35.73.03,1.46.04,2.19.04.73-.02,1.46-.07,2.2-.12,1.49-.1,3.02-.24,4.67-.41-1.55-.63-2.98-1.19-4.35-1.7-1.38-.49-2.7-.97-4.07-1.46-1.36-.47-2.77-.88-4.31-1.28-1.52-.45-3.17-.88-5.04-1.3-1.02-.2-2.51-.63-4.38-1.11-.93-.25-1.95-.51-3.05-.8-1.08-.33-2.24-.67-3.45-1.04-.88-.27-1.78-.54-2.68-.81-.95-.32-1.91-.65-2.88-.98-.97-.33-1.95-.66-2.93-.99-.97-.37-1.96-.74-2.95-1.11-.99-.37-1.99-.75-2.99-1.13-.99-.41-1.99-.83-2.99-1.24-1-.42-2.01-.84-3.02-1.26-1-.45-2-.91-3-1.37-8.03-3.67-16.04-8.01-23.59-12.71-15.14-9.38-28.31-20.28-37.56-28.79-4.65-4.23-8.31-7.9-10.86-10.44-2.51-2.58-3.93-4.04-3.93-4.04,0,0-.36-.36-1.01-1.06-.65-.7-1.62-1.73-2.85-3.05-2.45-2.64-5.92-6.49-10-11.29-8.19-9.56-18.66-23.09-28.61-37.97-10-14.85-19.47-31.03-26.84-45.08-.91-1.76-1.81-3.48-2.68-5.16-.81-1.61-1.6-3.17-2.37-4.69-.51-1.02-.98-1.98-1.41-2.85-.85-1.75-1.54-3.16-1.99-4.1-3.33-6.96-5.91-10.56-9.87-15.94Z"/>
          <path class="st20" d="M424.43,567.32c4.8,4.65,8.28,7.56,15.15,11.23.93.49,2.34,1.22,4.08,2.13.87.45,1.83.94,2.86,1.47,1.28.65,2.6,1.31,3.96,2,1.42.7,2.89,1.43,4.38,2.17,11.99,5.88,26.36,12.36,40.38,17.93,14.01,5.59,27.65,10.26,37.84,13.3,5.09,1.55,9.32,2.7,12.26,3.5,2.95.76,4.62,1.19,4.62,1.19,0,0,1.67.41,4.63,1.13,2.97.71,7.24,1.67,12.48,2.71,10.46,2.03,24.82,4.23,40.05,4.5,7.61.14,15.42-.18,22.96-1.18,1.88-.28,3.76-.49,5.59-.85,1.84-.32,3.66-.65,5.44-1.07.89-.2,1.78-.4,2.65-.59.87-.23,1.73-.46,2.59-.69.85-.24,1.71-.44,2.54-.7.78-.25,1.56-.49,2.33-.74.63-.2,1.24-.39,1.83-.58.59-.22,1.16-.43,1.71-.63,1.1-.41,2.14-.78,3.07-1.15,1.84-.8,3.33-1.44,4.32-1.87,1.78-.9,3.38-1.69,4.77-2.58,1.38-.91,2.65-1.75,3.79-2.71,1.13-.97,2.21-1.94,3.26-3,1.02-1.11,2.04-2.27,3.11-3.53-1.56.62-2.97,1.19-4.31,1.76-1.37.52-2.68,1.02-3.98,1.6-1.31.56-2.67,1.08-4.08,1.75-1.42.65-2.98,1.29-4.67,2.12-.94.4-2.35,1-4.1,1.75-.88.35-1.87.7-2.92,1.09-.52.19-1.07.39-1.62.6-.57.18-1.15.36-1.75.55-.73.23-1.47.46-2.21.7-.79.26-1.61.44-2.42.67-.82.22-1.64.44-2.47.66-.84.19-1.69.38-2.54.57-1.7.41-3.45.72-5.22,1.03-1.76.35-3.57.55-5.38.82-7.26.97-14.82,1.28-22.21,1.15-14.81-.26-28.89-2.4-39.17-4.39-5.14-1.02-9.35-1.96-12.28-2.66-2.92-.71-4.56-1.11-4.56-1.11,0,0-1.64-.42-4.55-1.18-2.9-.79-7.07-1.92-12.1-3.46-10.07-3.01-23.56-7.64-37.43-13.18-13.88-5.52-28.13-11.95-40.02-17.77-1.48-.73-2.93-1.45-4.35-2.15-1.35-.68-2.66-1.34-3.93-1.98-1.02-.52-1.97-1.01-2.84-1.45-1.73-.89-3.12-1.61-4.05-2.09-6.85-3.58-11.09-4.91-17.5-6.76Z"/>
          <path class="st17" d="M156.54-16.38s102.37,261.36,243.94,289.67c0,0-34.85,84.94-152.46,26.14,0,0-69.7,104.54-148.1,13.07,0,0-32.67,74.05-121.97,67.52V-16.38s185.13,0,178.6,0Z"/>
          <path class="st10" d="M642.33,728.15c5.72,3.46,9.81,5.47,17.38,7.38,1.03.25,2.57.62,4.49,1.07.96.22,2.01.46,3.14.71,1.23.27,2.51.54,3.82.83,1.36.28,2.77.57,4.2.86,11.48,2.31,25.14,4.44,38.31,5.66,13.17,1.26,25.82,1.56,35.15,1.34,4.67-.12,8.51-.31,11.18-.5,1.33-.1,2.38-.17,3.09-.22.71-.06,1.08-.09,1.08-.09,0,0,1.5-.14,4.17-.38,1.33-.15,2.95-.34,4.82-.55,1.86-.27,3.98-.5,6.29-.89,9.25-1.4,21.74-4.12,34.23-8.88,6.24-2.37,12.47-5.26,18.27-8.54,1.43-.85,2.85-1.7,4.26-2.53,1.37-.89,2.73-1.78,4.07-2.65,1.3-.93,2.59-1.84,3.85-2.74,1.19-.93,2.36-1.83,3.51-2.72,4.06-3.32,7.2-6.28,8.69-7.82,1.38-1.43,2.6-2.71,3.59-4.03,1-1.31,1.93-2.5,2.67-3.79.76-1.28,1.48-2.52,2.12-3.87.63-1.36,1.23-2.78,1.87-4.31-1.3,1.07-2.46,2.04-3.56,3-1.11.95-2.22,1.83-3.27,2.8-1.03.98-2.17,1.92-3.29,3.02-1.11,1.12-2.36,2.25-3.69,3.6-1.44,1.46-4.44,4.27-8.32,7.44-1.09.85-2.21,1.72-3.35,2.6-1.21.86-2.43,1.73-3.68,2.62-1.28.83-2.58,1.68-3.89,2.54-1.35.8-2.71,1.61-4.08,2.43-5.56,3.15-11.54,5.93-17.57,8.22-12.05,4.61-24.19,7.26-33.21,8.63-2.25.38-4.32.62-6.14.88-1.83.21-3.41.39-4.71.54-2.61.24-4.08.38-4.08.38,0,0-.37.03-1.06.09-.69.05-1.72.12-3.02.21-2.61.18-6.37.37-10.95.49-9.16.21-21.59-.09-34.56-1.33-12.97-1.21-26.46-3.31-37.79-5.59-1.42-.29-2.8-.57-4.15-.85-1.29-.28-2.55-.55-3.77-.82-1.11-.25-2.15-.48-3.1-.7-1.89-.44-3.42-.8-4.43-1.03-7.49-1.81-11.91-2.1-18.57-2.48Z"/>
        </g>
        <g>
          <polygon class="st15" points="382.3 812.32 378.67 774.11 398.53 807.45 423.11 781.58 413.43 812.22 448.43 811.38 413.88 828.35 432.43 853.38 402.83 834.61 399.47 872.58 388.4 842.53 364.26 858.1 381.35 828.43 350.78 814.33 382.3 812.32"/>
          <g>
            <polygon class="st15" points="596.02 993.99 591.09 942.09 618.07 987.38 651.45 952.23 638.29 993.85 685.84 992.72 638.9 1015.77 664.11 1049.76 623.9 1024.27 619.33 1075.84 604.3 1035.02 571.52 1056.18 594.72 1015.87 553.21 996.72 596.02 993.99"/>
            <polygon class="st15" points="211.82 512.98 207.32 465.62 231.93 506.95 262.39 474.88 250.39 512.85 293.77 511.81 250.94 532.85 273.94 563.86 237.26 540.6 233.09 587.65 219.38 550.42 189.46 569.71 210.63 532.94 172.75 515.47 211.82 512.98"/>
            <polygon class="st15" points="94.92 907.56 89.83 853.97 117.68 900.74 152.15 864.44 138.57 907.41 187.66 906.24 139.2 930.05 165.23 965.14 123.71 938.82 118.99 992.06 103.48 949.92 69.62 971.76 93.58 930.15 50.72 910.38 94.92 907.56"/>
            <polygon class="st15" points="61.54 229.84 57.04 182.48 81.65 223.81 112.11 191.74 100.11 229.71 143.49 228.68 100.66 249.71 123.66 280.73 86.97 257.47 82.81 304.52 69.09 267.28 39.18 286.58 60.35 249.8 22.47 232.33 61.54 229.84"/>
          </g>
        </g>
        <g>
          <g>
            <path class="st15" d="M242.03,350.06s8.98-25.86,21.51-.82l-21.51.82Z"/>
            <path class="st21" d="M242.03,350.06c-1.3-1.8-2.35-2.95-4.57-4.38-.3-.2-.76-.47-1.33-.81-.29-.16-.61-.34-.95-.53l-.35-.19-.44-.22c-.3-.15-.59-.31-.9-.45-.61-.3-1.25-.58-1.92-.85-2.65-1.09-5.74-1.95-9.04-2-3.28-.05-6.74.86-9.49,2.75-2.81,1.81-4.85,4.39-6.42,6.84-1.55,2.46-2.83,4.87-3.32,7.24-.27,1.17-.26,2.39.12,3.44.38,1.06,1.18,1.78,1.85,2.16.7.35,1.26.47,1.64.56.38.05.58.07.58.07,0,0,.2.05.57.04.19,0,.42,0,.69,0,.27-.02.57-.05.91-.07,1.36-.16,3.25-.64,5.34-1.66,1.05-.5,2.14-1.16,3.22-1.99,1.07-.83,2.14-1.85,3-3.16.87-1.3,1.37-3.03,1.21-4.75-.09-.86-.35-1.7-.71-2.5-.4-.77-.89-1.5-1.48-2.13-1.18-1.27-2.67-2.2-4.25-2.83-1.59-.61-3.28-.92-4.94-.95-3.31-.08-6.55,1.03-8.94,2.43-1.53.91-2.69,1.81-3.22,2.29-2.01,1.77-2.79,3.15-3.68,5.18,1.75-1.38,2.89-2.26,4.77-3.89.5-.45,1.58-1.28,2.98-2.11,2.19-1.28,5.12-2.28,8.06-2.2,1.48.03,2.97.3,4.36.83,1.38.55,2.65,1.36,3.63,2.41.49.52.88,1.11,1.2,1.72.28.62.48,1.27.55,1.93.11,1.31-.24,2.6-.95,3.67-1.45,2.17-3.64,3.61-5.53,4.54-1.91.93-3.63,1.36-4.8,1.5-.29.02-.55.04-.78.06-.22,0-.41,0-.56,0-.31,0-.46-.04-.46-.03,0,0-.16-.02-.45-.05-.28-.07-.69-.16-1.14-.38-.42-.25-.85-.63-1.08-1.27-.23-.63-.29-1.52-.05-2.52.41-2,1.6-4.31,3.09-6.67,1.5-2.33,3.4-4.7,5.93-6.33,2.48-1.7,5.55-2.51,8.53-2.47,3,.04,5.9.84,8.41,1.87.63.26,1.24.53,1.83.81.3.13.58.29.86.43l.42.21.33.18c.33.18.63.35.91.51.55.33,1,.58,1.28.77,2.15,1.35,3.46,1.97,5.46,2.95Z"/>
            <path class="st21" d="M263.54,349.25c1.22-1.86,2.07-3.02,3.31-5.22.17-.29.43-.74.78-1.27.17-.27.36-.56.58-.86l.28-.4.37-.5c.25-.34.52-.67.79-1,.55-.67,1.14-1.32,1.78-1.96,1.29-1.26,2.77-2.44,4.45-3.37,1.68-.93,3.55-1.62,5.53-1.98,1.96-.36,4.06-.41,6.04-.1,1.99.32,3.89,1.08,5.56,2.18,3.37,2.19,5.67,5.66,6.93,9.08,1.27,3.43,1.54,6.92.88,9.6-.33,1.34-.9,2.45-1.6,3.22-.7.78-1.5,1.21-2.18,1.48-.7.25-1.3.29-1.69.35-.4,0-.61,0-.61,0,0-.02-.22.04-.6-.05-.38-.06-.95-.15-1.52-.52-.58-.35-1.18-.97-1.55-1.94-.37-.96-.52-2.22-.4-3.6.24-2.77,1.48-6.04,3.72-8.92,2.22-2.87,5.58-5.32,9.53-6.04,1.96-.37,4.02-.31,6.01.1,1.07.18,2.14.35,3.21.53,1.08.16,2.18.14,3.26.22,1.08,0,2.17-.12,3.23-.2.53-.11,1.05-.21,1.57-.32.52-.1,1.04-.21,1.53-.41.5-.17.99-.34,1.48-.52.48-.21.93-.46,1.39-.68l.68-.35.63-.42.62-.42.31-.21c.1-.06.22-.17.21-.16,1.4-1.13,2.4-2.23,2.84-2.81.41-.54.78-1.02,1.03-1.52.28-.48.5-.95.67-1.43.35-.94.56-1.88.62-2.99-.58.95-1.14,1.66-1.71,2.41-.28.38-.56.76-.88,1.16-.29.42-.66.83-1.04,1.32-.41.53-1.31,1.51-2.57,2.53,0,0-.1.09-.19.14l-.28.19-.56.38-.56.38-.62.31c-.41.2-.82.43-1.25.62-.44.15-.89.31-1.34.46-.44.18-.92.28-1.4.37-.48.1-.96.2-1.44.29-.99.06-1.98.18-2.99.18-1.01-.08-2.04-.05-3.06-.21-1.03-.17-2.05-.34-3.08-.51-2.18-.45-4.47-.52-6.66-.11-4.43.8-8.15,3.54-10.56,6.66-2.44,3.15-3.79,6.67-4.07,9.82-.13,1.58.01,3.08.51,4.35.48,1.28,1.37,2.26,2.24,2.77.87.55,1.66.68,2.17.75.52.11.78.04.78.06,0,0,.27,0,.78,0,.5-.07,1.24-.13,2.15-.45.89-.34,1.97-.92,2.87-1.94.91-1.01,1.6-2.38,1.98-3.93.77-3.11.44-6.89-.93-10.6-1.37-3.69-3.84-7.46-7.59-9.91-1.85-1.22-4-2.08-6.22-2.44-2.24-.34-4.45-.28-6.61.11-2.16.39-4.21,1.15-6.05,2.17-1.84,1.02-3.44,2.3-4.82,3.65-.69.68-1.32,1.38-1.9,2.09-.29.36-.57.71-.83,1.07l-.39.53-.29.42c-.23.32-.43.63-.61.91-.36.56-.63,1.03-.81,1.34-1.29,2.31-1.65,3.84-1.86,6.06Z"/>
            <path class="st21" d="M250.47,338.63c-.43-2.18-.73-3.63-1.65-6.02-.12-.32-.31-.81-.53-1.42-.11-.3-.23-.64-.36-.99-.15-.43-.31-.88-.47-1.34-.16-.48-.32-.98-.49-1.49-1.3-4.06-2.54-8.98-2.87-13.74-.16-2.37-.08-4.7.32-6.77.39-2.07,1.11-3.87,1.99-5.2.42-.69.92-1.21,1.33-1.7.47-.42.9-.83,1.22-1.06.33-.24.57-.31.72-.35.15-.03.22-.03.22-.02,0,.04.26-.11.79.37.54.48,1.16,1.68,1.64,3.25.98,3.16,1.58,7.77,1.95,12.59.37,4.81.52,9.95.57,14.16.01,1.7.02,3.1.02,3.8,0,2.58.28,4.04.76,6.21.59-2.15.9-3.62.92-6.21,0-.7,0-2.11-.01-3.82-.05-4.24-.19-9.41-.57-14.27-.38-4.88-.98-9.55-2.03-12.96-.53-1.7-1.18-3.11-2.1-3.98-.45-.43-.97-.69-1.36-.76-.38-.1-.59-.05-.59-.07,0,0-.05,0-.15,0-.1.01-.24.04-.42.06-.35.08-.85.27-1.32.61-.48.34-.9.77-1.46,1.27-.49.56-1.06,1.17-1.54,1.96-1.01,1.53-1.81,3.55-2.24,5.8-.43,2.25-.52,4.72-.35,7.2.34,4.97,1.62,10,2.94,14.14.17.52.34,1.02.5,1.51.16.47.32.93.48,1.37.13.36.25.7.37,1.01.23.61.42,1.11.55,1.44.96,2.42,1.82,3.68,3.22,5.41Z"/>
            <g>
              <circle class="st15" cx="254.26" cy="399.6" r="51.12"/>
              <path class="st1" d="M213.17,368.94s43.2,26.32,76.96-6.35c0,0-39.57-37.39-76.96,6.35Z"/>
              <path class="st14" d="M229.14,355.14s28.13,22.32,45.56-2.72c0,0-21.24-13.25-45.56,2.72Z"/>
              <path class="st14" d="M213.71,369.12s-4.72,24.87.73,27.22c5.45,2.36,10.89-13.61,10.89-13.61,0,0,2.18,18.51,7.62,19.24,5.45.73,8.35-16.7,8.35-16.7,0,0,3.27,17.79,9.44,17.97,6.17.18,5.99-18.33,5.99-18.33,0,0,7.08,16.52,12.34,14.7s1.82-17.61,1.82-17.61c0,0,7.26,15.79,12.71,12.34,5.44-3.45-.91-17.42-.91-17.42,0,0,10.53,13.43,15.43,8.71s-7.99-23.05-7.99-23.05c0,0-27.95,31.4-76.41,6.53Z"/>
              <path class="st14" d="M203.1,398.25s54.18,31.49,99.92-13.7c0,0,2.18,5.54,2.45,12.89,0,0-46.92,46.28-101.82,11.16,0,0-.73-6.08-.54-10.35Z"/>
              <path class="st1" d="M204.09,408.87s6.62,21.78,11.25,21.24c4.63-.54,4.08-13.07,4.08-13.07,0,0,1.91,22.87,8.71,22.05,6.81-.82,5.44-18.51,5.44-18.51,0,0,4.63,23.14,9.8,21.78s5.45-21.78,5.45-21.78c0,0,7.35,21.51,14.7,20.15,7.35-1.36,3.27-22.6,3.27-22.6,0,0,9.53,19.06,13.88,17.15,4.36-1.91,0-22.87,0-22.87,0,0,8.17,17.7,11.98,14.97s1.09-20.96,1.09-20.96c0,0,5.44,14.97,8.17,11.71,2.72-3.27,3.54-20.69,3.54-20.69,0,0-47.64,44.47-101.37,11.43Z"/>
            </g>
          </g>
          <g>
            <path class="st15" d="M397.94,624.31s3.64-15.74,11.62-16.33c9.8-.73,12.71,16.33,12.71,16.33h-24.32Z"/>
            <path class="st9" d="M400.48,623.58c-1.56-1.59-2.68-2.6-4.93-3.9-.31-.17-.76-.43-1.33-.76-.29-.16-.6-.33-.93-.52-.96-.52-1.98-1.07-3.05-1.65-4.39-2.32-9.67-4.9-14.97-6.83-2.65-.96-5.31-1.77-7.86-2.23-2.54-.45-5.02-.58-7.13.06-1.05.32-1.97.85-2.64,1.5-.67.65-1.07,1.37-1.32,1.95-.25.59-.37,1.08-.42,1.43-.06.34-.07.53-.07.53.04-.01-.18.78.26,2.07.4,1.32,1.7,2.78,3.5,3.82,3.61,2.14,8.96,3.31,14.52,4.1,5.55.77,11.49,1.1,16.33,1.24,1.72.05,3.12.06,3.83.07,2.6,0,4.07-.29,6.22-.88-2.17-.49-3.63-.77-6.21-.8-.7-.01-2.09-.04-3.8-.08-4.81-.13-10.69-.47-16.15-1.22-5.45-.75-10.69-1.96-13.88-3.87-1.6-.93-2.52-2.07-2.78-2.93-.3-.85-.14-1.4-.18-1.39,0,0,0-.53.37-1.44.35-.89,1.21-2,2.9-2.5,1.68-.51,3.94-.44,6.34,0,2.41.44,4.99,1.22,7.58,2.16,5.18,1.9,10.41,4.45,14.76,6.74,1.06.57,2.07,1.12,3.02,1.63.33.18.64.36.93.52.57.32,1.02.57,1.33.74,2.24,1.27,3.64,1.76,5.76,2.44Z"/>
            <path class="st9" d="M421.53,621.04c1.81-1.29,3-2.18,4.76-4.06.24-.25.6-.63,1.04-1.11.22-.23.47-.49.73-.77.58-.6,1.21-1.23,1.86-1.9,2.68-2.68,5.94-5.77,9.32-8.32,1.69-1.27,3.42-2.41,5.1-3.2,1.66-.76,3.35-1.19,4.45-.79.13.05.27.09.39.14.11.08.22.15.33.22.21.1.46.39.67.56.42.39.74.76.99,1.06.48.62.67,1,.67,1,0,0,.05.09.13.27.09.18.19.44.28.79.17.68.18,1.72-.52,2.86-.67,1.14-1.95,2.3-3.51,3.33-1.56,1.04-3.41,1.97-5.35,2.82-3.88,1.68-8.21,3.02-11.8,4-1.64.45-2.99.78-3.67.95-2.5.61-3.85,1.21-5.87,2.15,2.22.11,3.74.08,6.27-.51.69-.16,2.05-.5,3.71-.95,3.64-.99,8.03-2.35,12.03-4.08,2.01-.87,3.93-1.84,5.61-2.96,1.68-1.12,3.14-2.39,4.02-3.87.44-.73.72-1.52.81-2.25.09-.72.03-1.37-.1-1.87-.12-.5-.27-.87-.39-1.1-.11-.24-.18-.36-.18-.36,0,0-.07-.12-.2-.34-.12-.23-.35-.53-.64-.91-.3-.37-.68-.79-1.15-1.24-.27-.22-.44-.45-.83-.69-.18-.12-.37-.24-.56-.36-.2-.1-.42-.17-.65-.25l-.34-.11-.35-.05c-.23-.03-.48-.07-.72-.07-.47.03-.97.03-1.44.15-.97.17-1.89.55-2.83.95-1.84.88-3.65,2.07-5.4,3.38-3.5,2.64-6.8,5.76-9.51,8.48-.66.67-1.29,1.32-1.88,1.92-.27.28-.51.54-.74.78-.45.48-.81.87-1.05,1.12-1.75,1.92-2.52,3.22-3.52,5.21Z"/>
            <path class="st9" d="M400.48,622.13c-1.27-1.83-2.14-3.02-3.99-4.81-.25-.24-.62-.61-1.08-1.06-.23-.23-.48-.48-.75-.75-.58-.6-1.2-1.24-1.85-1.91-2.61-2.75-5.56-6.13-7.89-9.66-1.16-1.76-2.17-3.57-2.82-5.31-.65-1.73-.91-3.41-.68-4.7.22-1.3.88-2.16,1.41-2.69.27-.26.5-.43.66-.53.15-.12.25-.14.24-.15,0,0,.08-.05.25-.12.16-.06.4-.16.72-.18.61-.09,1.59.21,2.61,1.16,2.06,1.88,4.01,5.56,5.65,9.46,1.64,3.92,3.06,8.23,4.12,11.81.47,1.63.85,2.98,1.05,3.65.69,2.48,1.33,3.82,2.35,5.8.03-2.23-.06-3.73-.72-6.24-.18-.68-.56-2.04-1.05-3.68-1.07-3.61-2.5-7.97-4.18-11.98-1.7-4-3.63-7.79-6.08-10.06-.62-.56-1.28-1.01-1.96-1.28-.68-.28-1.38-.36-1.93-.3-.56.04-.96.2-1.22.31-.26.11-.39.19-.39.19,0,0-.14.06-.36.22-.23.15-.55.38-.91.73-.7.67-1.63,1.9-1.91,3.62-.3,1.71.05,3.68.76,5.58.71,1.91,1.78,3.81,2.99,5.64,2.43,3.67,5.43,7.1,8.07,9.9.66.68,1.29,1.32,1.88,1.93.27.27.53.53.76.76.47.46.85.83,1.1,1.07,1.88,1.79,3.18,2.58,5.16,3.6Z"/>
            <path class="st9" d="M406.65,612.69c.15-2.22.21-3.71-.16-6.26-.05-.35-.12-.86-.21-1.51-.15-1.19-.34-2.61-.54-4.17-.53-4.47-1.02-9.77-1.07-14.83-.02-2.53.06-4.99.33-7.23.26-2.23.73-4.26,1.49-5.7.09-.18.19-.35.28-.52.11-.15.22-.29.32-.43.19-.31.45-.46.66-.67.23-.17.46-.25.67-.38.24-.06.47-.14.67-.18.19,0,.37-.02.52-.04.14.02.26.04.36.06.2,0,.28.1.29.08,0,0,.1.04.28.11.16.13.44.25.72.58.59.6,1.27,1.8,1.75,3.45.98,3.31,1.37,8.16,1.33,13.21-.04,5.04-.5,10.41-1.07,14.77-.22,1.69-.42,3.06-.53,3.75-.39,2.54-.37,4.02-.26,6.25.95-2.01,1.5-3.42,1.92-5.99.11-.7.33-2.09.54-3.79.57-4.42,1.04-9.84,1.08-14.97.04-5.15-.34-10.1-1.4-13.71-.53-1.8-1.3-3.26-2.16-4.14-.4-.45-.86-.71-1.14-.89-.32-.14-.49-.21-.49-.21,0,.02-.16-.11-.51-.15-.17-.03-.39-.06-.64-.1-.25.02-.53.04-.85.06-.3.06-.63.16-.98.26-.34.17-.74.35-1.09.61-.32.29-.71.57-.96.96-.14.19-.28.38-.43.58-.11.21-.23.42-.35.64-.92,1.76-1.39,3.93-1.67,6.27-.28,2.34-.37,4.87-.34,7.45.05,5.16.55,10.5,1.08,15.01.2,1.57.39,3.01.55,4.21.09.65.17,1.17.22,1.52.4,2.56.92,3.98,1.82,6.01Z"/>
            <ellipse class="st15" cx="411.68" cy="672.03" rx="49.78" ry="49.93"/>
            <path class="st1" d="M385.59,629.39s23.96,21.05,46.46-2.54c0,0-20.33-13.07-46.46,2.54Z"/>
            <path class="st1" d="M369.44,645.72s43.38,26.86,79.68-7.26c0,0,7.99,9.8,9.08,15.61,0,0-34.85,47.19-95.47,9.08,0,0,1.63-9.08,6.72-17.42Z"/>
            <path class="st19" d="M364.54,688.2s53.36,32.31,96.56-13.07c0,0,1.09,8.71-5.81,21.42,0,0-11.98,23.96-42.11,25.41,0,0-35.57,3.63-48.64-33.76Z"/>
            <path class="st1" d="M386.32,715.06s22.87-20.33,55.54-2.9c0,0-26.14,20.33-55.54,2.9Z"/>
            <path class="st1" d="M380.87,682.39c0,2.81-2.28,5.08-5.08,5.08s-5.08-2.28-5.08-5.08,2.28-5.08,5.08-5.08,5.08,2.28,5.08,5.08Z"/>
            <path class="st1" d="M404.47,688.2c0,2.81-2.28,5.08-5.08,5.08s-5.08-2.28-5.08-5.08,2.28-5.08,5.08-5.08,5.08,2.28,5.08,5.08Z"/>
            <path class="st1" d="M430.61,686.74c0,2.81-2.28,5.08-5.08,5.08s-5.08-2.28-5.08-5.08,2.28-5.08,5.08-5.08,5.08,2.28,5.08,5.08Z"/>
            <path class="st1" d="M453.11,676.22c0,2.81-2.28,5.08-5.08,5.08s-5.08-2.28-5.08-5.08,2.28-5.08,5.08-5.08,5.08,2.28,5.08,5.08Z"/>
            <path class="st15" d="M449.48,654.44c0,2.81-2.28,5.08-5.08,5.08s-5.08-2.28-5.08-5.08,2.28-5.08,5.08-5.08,5.08,2.28,5.08,5.08Z"/>
            <path class="st15" d="M430.24,664.6c0,2.81-2.28,5.08-5.08,5.08s-5.08-2.28-5.08-5.08,2.28-5.08,5.08-5.08,5.08,2.28,5.08,5.08Z"/>
            <path class="st15" d="M407.37,666.42c0,2.81-2.28,5.08-5.08,5.08s-5.08-2.28-5.08-5.08,2.28-5.08,5.08-5.08,5.08,2.28,5.08,5.08Z"/>
            <path class="st15" d="M381.96,660.24c0,2.81-2.28,5.08-5.08,5.08s-5.08-2.28-5.08-5.08,2.28-5.08,5.08-5.08,5.08,2.28,5.08,5.08Z"/>
            <path class="st1" d="M389.59,641.01c0,2.81-2.28,5.08-5.08,5.08s-5.08-2.28-5.08-5.08,2.28-5.08,5.08-5.08,5.08,2.28,5.08,5.08Z"/>
            <path class="st1" d="M414.27,647.18c0,2.81-2.28,5.08-5.08,5.08s-5.08-2.28-5.08-5.08,2.28-5.08,5.08-5.08,5.08,2.28,5.08,5.08Z"/>
            <path class="st1" d="M438.23,639.55c0,2.81-2.28,5.08-5.08,5.08s-5.08-2.28-5.08-5.08,2.28-5.08,5.08-5.08,5.08,2.28,5.08,5.08Z"/>
          </g>
          <g>
            <circle class="st5" cx="193.75" cy="746.09" r="58.08"/>
            <path class="st1" d="M135.67,746.09s9.07,33.03,42.47,2.9c0,0,22.51,27.22,44.65-1.09,0,0,15.25,18.51,29.04-1.82,0,0,1.82-21.42-13.79-37.03l-91.48,1.82s-10.89,15.61-10.89,35.21Z"/>
            <path class="st5" d="M143.66,715.96s13.07,21.42,34.12,1.45c0,0,15.97,21.42,34.85-.73,0,0,16.34,19.97,30.49-1.09,0,0-17.06-28.68-49.37-27.59,0,0-32.31,0-50.09,27.95Z"/>
            <path class="st16" d="M140.75,769.69s51.55,33.76,108.54-5.81c0,0-9.8,36.3-53.72,40.29,0,0-35.94,3.63-54.81-34.48Z"/>
            <path class="st13" d="M207.72,747.55c0,3.51-2.84,6.35-6.35,6.35s-6.35-2.84-6.35-6.35,2.84-6.35,6.35-6.35,6.35,2.84,6.35,6.35Z"/>
            <path class="st13" d="M245.11,742.1c0,3.51-2.84,6.35-6.35,6.35s-6.35-2.84-6.35-6.35,2.84-6.35,6.35-6.35,6.35,2.84,6.35,6.35Z"/>
            <path class="st13" d="M233.86,713.42c0,3.51-2.84,6.35-6.35,6.35s-6.35-2.84-6.35-6.35,2.84-6.35,6.35-6.35,6.35,2.84,6.35,6.35Z"/>
            <circle class="st13" cx="195.56" cy="713.79" r="6.35"/>
            <circle class="st13" cx="159.26" cy="713.42" r="6.35"/>
            <path class="st13" d="M163.62,746.64c0,3.51-2.84,6.35-6.35,6.35s-6.35-2.84-6.35-6.35,2.84-6.35,6.35-6.35,6.35,2.84,6.35,6.35Z"/>
            <path class="st15" d="M176.32,691.28s1.09-14.52,15.25-16.33c14.16-1.82,17.79,14.52,17.79,14.52l-33.03,1.82Z"/>
            <path class="st9" d="M190.84,678.21c-1.44-1.7-2.68-2.73-5.14-3.74-.34-.13-.85-.32-1.49-.53-.32-.11-.68-.2-1.06-.31l-.44-.12-.56-.13c-.37-.09-.76-.16-1.15-.23-.39-.08-.79-.13-1.19-.18-.4-.06-.81-.1-1.23-.12-3.32-.24-7.04.28-10.48,1.73-3.46,1.42-6.65,3.63-9.34,6.16-2.72,2.55-4.97,5.3-7.09,7.82-2.1,2.53-3.99,4.88-5.6,6.87-3.21,3.98-5.38,6.43-5.38,6.43,0,0-.53.62-1.52,1.68-1,1.04-2.42,2.59-4.37,4.06-.96.72-2.13,1.43-3.3,1.6-.58.05-1.11-.06-1.59-.38-.47-.37-.9-.9-1.23-1.56-1.28-2.69-1.99-6.37-.4-9.29.35-.74.9-1.38,1.46-1.99.61-.57,1.27-1.11,2.02-1.52,1.47-.86,3.15-1.39,4.85-1.63,1.7-.25,3.41-.22,5.04.02.41.05.81.13,1.21.22.4.07.79.19,1.17.3.39.1.76.23,1.12.37l.55.2.45.21c1.48.66,2.59,1.42,3.11,1.83,1.92,1.51,3,2.4,4.56,3.98-.63-2.12-1.42-3.62-3.54-5.32-.57-.46-1.8-1.31-3.44-2.04l-.5-.23-.6-.22c-.4-.15-.81-.3-1.24-.41-.42-.13-.85-.25-1.28-.33-.43-.1-.87-.19-1.32-.24-1.79-.27-3.67-.29-5.54-.02-1.87.26-3.75.85-5.45,1.84-.86.47-1.64,1.11-2.36,1.78-.68.73-1.33,1.5-1.76,2.4-.96,1.76-1.23,3.8-1.06,5.66.19,1.88.66,3.59,1.46,5.2.41.8.97,1.57,1.75,2.16.82.57,1.86.78,2.75.68,1.78-.27,3.04-1.14,4.12-1.92,2.13-1.62,3.57-3.2,4.59-4.27,1.01-1.08,1.55-1.71,1.55-1.71,0,0,2.21-2.49,5.43-6.48,1.62-1.99,3.5-4.34,5.59-6.85,2.1-2.5,4.36-5.24,6.95-7.66,2.58-2.43,5.61-4.51,8.83-5.84,3.22-1.36,6.64-1.83,9.72-1.61.39.02.77.06,1.14.11.38.04.75.09,1.11.16.36.06.72.13,1.07.21l.52.12.41.11c.36.1.69.18.99.29.6.19,1.08.37,1.39.48,1.16.44,2.08.79,2.97,1.13.89.33,1.76.6,2.78,1.04Z"/>
            <path class="st9" d="M193.02,676.76c1.97-1.04,3.27-1.73,5.29-3.31.28-.21.69-.53,1.21-.92.26-.19.54-.4.85-.63.47-.34.95-.69,1.44-1.04.56-.39,1.12-.79,1.7-1.18,1.16-.78,2.36-1.57,3.62-2.32,5-3.01,10.84-5.94,17.25-6.86,3.18-.44,6.51-.2,9.44,1.07.71.36,1.45.67,2.09,1.15.32.23.68.41.98.68l.91.78c.32.25.58.55.85.85l.81.89c.5.64,1,1.29,1.48,1.95,1.84,2.67,3.27,5.61,3.72,8.64.44,3.01-.23,6.04-1.85,8.35-3.23,4.68-9.45,6.31-13.3,4.48-.23-.12-.46-.25-.69-.37-.22-.13-.42-.29-.62-.43-.23-.13-.33-.32-.5-.47-.17-.14-.29-.34-.4-.53-.27-.35-.39-.8-.56-1.2-.08-.45-.24-.85-.25-1.3-.19-1.73.03-3.32.28-4.59.14-.64.28-1.2.4-1.69.15-.49.27-.9.38-1.23.22-.66.36-1.01.36-1.01,0,0,.12-.35.38-1,.27-.65.67-1.6,1.26-2.78,1.2-2.34,3.15-5.66,6.32-9.01,1.59-1.65,3.49-3.32,5.77-4.62,2.27-1.28,4.94-2.3,7.8-2.26.35,0,.71.02,1.07.03.36.03.71.1,1.07.15.72.06,1.41.34,2.13.52.69.27,1.38.54,2.07.88.69.36,1.39.71,2.07,1.12,2.71,1.56,5.32,3.59,7.02,6.23.85,1.31,1.38,2.8,1.43,4.3.05,1.5-.45,2.98-1.41,4.11-.96,1.12-2.36,1.85-3.82,2-.73.08-1.47.01-2.18-.19-.7-.2-1.33-.51-1.83-.97-.99-.94-1.44-2.41-1.48-3.9-.05-1.5.28-3.02.75-4.45.5-1.43,1.17-2.79,1.97-4.04.39-.63.83-1.22,1.29-1.78.22-.29.46-.56.7-.82.12-.13.24-.27.36-.4l.26-.26c1.15-1.16,2.24-1.95,2.8-2.32,1.03-.68,1.84-1.21,2.64-1.69.79-.51,1.57-.96,2.55-1.49-2.21.02-3.85.32-6.13,1.78-.61.4-1.81,1.26-3.06,2.53l-.28.28c-.14.14-.26.29-.39.43-.26.29-.52.58-.76.89-.5.61-.97,1.25-1.4,1.93-.87,1.35-1.6,2.83-2.15,4.41-.52,1.59-.89,3.28-.84,5.05.04,1.74.56,3.7,2.01,5.09.72.67,1.63,1.12,2.54,1.37.9.25,1.86.35,2.8.24,1.89-.19,3.69-1.14,4.93-2.59,1.24-1.45,1.88-3.38,1.81-5.26-.07-1.88-.73-3.66-1.69-5.16-.96-1.51-2.17-2.79-3.47-3.9-1.3-1.12-2.7-2.06-4.13-2.89-.71-.43-1.44-.8-2.16-1.17-.73-.36-1.52-.68-2.29-.97-.8-.21-1.58-.51-2.4-.58-.4-.06-.81-.13-1.21-.17-.4-.01-.81-.02-1.21-.03-3.23-.03-6.18,1.11-8.64,2.49-2.47,1.41-4.47,3.18-6.15,4.92-3.33,3.52-5.35,6.97-6.6,9.42-.62,1.23-1.04,2.23-1.32,2.91-.28.68-.4,1.05-.4,1.05,0,0-.15.36-.38,1.06-.11.35-.24.79-.4,1.3-.13.52-.29,1.12-.43,1.81-.26,1.37-.52,3.09-.3,5.13.02.51.2,1.04.31,1.58.22.53.38,1.1.75,1.61.16.27.33.54.58.76.23.22.45.51.71.67.26.18.51.38.78.54.28.15.57.3.85.46,4.79,2.18,11.65.26,15.4-5.05,1.88-2.65,2.64-6.18,2.14-9.55-.5-3.39-2.06-6.55-4-9.37-.5-.7-1.02-1.38-1.55-2.06l-.89-.98c-.29-.33-.59-.66-.94-.94l-1.01-.87c-.33-.3-.73-.51-1.09-.76-.72-.53-1.54-.89-2.34-1.29-3.29-1.43-6.95-1.66-10.34-1.2-6.83.99-12.8,4.03-17.91,7.1-1.28.77-2.51,1.57-3.69,2.37-.59.39-1.16.8-1.73,1.2-.5.36-.98.71-1.46,1.06-.31.23-.6.45-.86.64-.52.4-.94.72-1.22.94-2.04,1.62-3.01,2.79-4.26,4.64Z"/>
            <path class="st9" d="M187.58,677.85c-.2-2.22-.36-3.69-1.11-6.16-.1-.33-.25-.84-.44-1.46-.09-.31-.19-.65-.3-1.02-.22-.75-.44-1.53-.67-2.33-.23-.85-.47-1.72-.72-2.61-1.91-7.13-3.85-15.65-4.71-23.9-.43-4.12-.59-8.17-.33-11.88.24-3.7,1.03-7.04,2.26-9.54.16-.31.31-.62.46-.92.18-.27.36-.54.54-.8.18-.25.33-.52.52-.75.2-.21.39-.42.58-.62.19-.2.36-.4.54-.58.2-.15.4-.3.58-.44.37-.28.72-.58,1.01-.71.6-.31,1.02-.28,1.29-.2.28.05.41.2.42.18,0-.01.14.09.41.3.25.25.62.67,1,1.35.76,1.35,1.51,3.61,2.11,6.44,1.21,5.68,1.89,13.64,2.24,21.96.17,4.17.26,8.43.3,12.58,0,2.08,0,4.12.01,6.11-.02,1.96-.04,3.86-.05,5.67-.03,1.71-.05,3.11-.06,3.8-.05,2.58.2,4.05.66,6.23.62-2.14.95-3.6,1.02-6.19.01-.7.04-2.11.08-3.82.02-1.82.04-3.73.05-5.69,0-2,0-4.05-.01-6.13-.03-4.17-.13-8.45-.3-12.64-.35-8.38-1.03-16.38-2.28-22.24-.62-2.93-1.39-5.32-2.29-6.92-.45-.8-.94-1.39-1.33-1.76-.21-.18-.39-.31-.5-.39-.11-.09-.2-.11-.19-.12,0,0-.07-.04-.2-.11-.13-.08-.34-.17-.64-.25-.58-.18-1.58-.16-2.48.33-.48.22-.84.55-1.29.88-.22.17-.45.34-.68.53-.22.2-.42.44-.64.67-.22.23-.44.48-.67.72-.22.26-.39.56-.6.85-.2.29-.4.6-.61.91-.17.33-.34.67-.51,1.02-1.37,2.78-2.18,6.33-2.43,10.16-.27,3.84-.11,7.98.33,12.18.87,8.4,2.83,16.98,4.75,24.16.25.9.49,1.77.72,2.63.23.81.46,1.59.68,2.35.11.37.21.71.31,1.03.19.63.35,1.13.45,1.47.78,2.48,1.51,3.8,2.72,5.66Z"/>
          </g>
          <g>
            <path class="st15" d="M435.32,941.21s3.99-14.52,15.61-15.25c11.62-.73,14.52,15.61,14.52,15.61l-30.13-.36Z"/>
            <path class="st9" d="M448.03,927.05c.05-2.23.04-3.71-.44-6.24-.06-.34-.16-.86-.28-1.5-.06-.32-.12-.67-.19-1.05-.25-1.44-.51-2.97-.79-4.57-1.08-6.58-2.08-14.39-2.37-21.88-.31-7.46.21-14.73,2.16-19.46.23-.59.54-1.11.78-1.62.31-.46.59-.92.88-1.31.33-.35.62-.71.92-.99.3-.27.59-.47.84-.6.51-.25.79-.18,1-.11.21.1.32.21.32.21,0,0,.12.07.32.32.2.24.5.66.78,1.31.59,1.27,1.15,3.34,1.57,5.93.86,5.17,1.25,12.36,1.35,19.89.05,3.76.03,7.62-.03,11.36-.04,1.87-.08,3.72-.12,5.51-.06,1.77-.11,3.48-.17,5.12-.07,1.71-.12,3.1-.15,3.8-.1,2.58.11,4.06.52,6.24.66-2.13,1.03-3.58,1.16-6.17.03-.7.09-2.1.16-3.81.05-1.65.11-3.37.17-5.14.04-1.8.08-3.65.12-5.53.06-3.76.08-7.63.03-11.41-.11-7.57-.49-14.81-1.38-20.14-.44-2.66-1.01-4.85-1.7-6.35-.33-.75-.71-1.33-1.03-1.7-.31-.38-.56-.54-.56-.54,0,0-.19-.2-.72-.44-.52-.25-1.53-.32-2.39.15-.43.21-.83.51-1.22.85-.37.35-.72.77-1.11,1.2-.35.46-.67.98-1.02,1.52-.27.57-.61,1.16-.87,1.81-2.12,5.19-2.59,12.59-2.29,20.17.3,7.6,1.31,15.47,2.39,22.09.28,1.61.55,3.16.8,4.6.07.38.13.73.19,1.05.12.64.22,1.16.29,1.5.51,2.54,1.09,3.93,2.09,5.92Z"/>
            <g>
              <circle class="st11" cx="450.95" cy="998.71" r="59.68"/>
              <path class="st1" d="M448.03,939.39s-68.24,45.01-23.59,112.53c0,0-41.02-16.34-31.58-69.33,0,0,9.8-40.29,55.18-43.2Z"/>
              <path class="st1" d="M448.39,941.21s-39.57,62.07-.73,117.25c0,0,34.48-50.82.73-117.25Z"/>
              <path class="st1" d="M448.03,939.39s60.26,38.48,30.13,112.89c0,0,39.57-19.6,31.22-64.98-8.35-45.37-54.45-49.73-61.35-47.92Z"/>
            </g>
          </g>
          <g>
            <g>
              <circle class="st7" cx="95.29" cy="518.58" r="50.37" transform="translate(-338.79 219.27) rotate(-45)"/>
              <path class="st8" d="M69.97,474.89s23.28,19.74,48.32-.95c0,0-22.37-13.7-48.32.95Z"/>
              <path class="st8" d="M53.77,490.27s46.06,27.36,79.09-5.31c0,0,6.99,7.58,9.89,16.65,0,0-34.12,43.2-96.92,7.26,0,0,1.59-8.39,7.94-18.6Z"/>
              <path class="st8" d="M47.64,535.74s58.53,24.18,97.74-11.03c0,0-.09,15.38-15.34,30.63,0,0-30.49,18.47-66.07,2.86,0,0-11.43-8.49-16.34-22.46Z"/>
              <path class="st15" d="M80.67,470.76s4.72-12.34,13.07-12.7c8.35-.36,15.25,12.7,15.25,12.7h-28.31Z"/>
              <path class="st9" d="M93.38,461.32c.02-2.23-.01-3.71-.52-6.24-.07-.34-.17-.86-.3-1.49-.06-.32-.13-.67-.2-1.04-.22-1.19-.45-2.46-.7-3.79-.95-5.44-1.87-11.91-2.14-18.12-.13-3.1-.1-6.13.2-8.88.3-2.74.88-5.24,1.88-7.01.13-.22.25-.43.37-.64.13-.2.29-.36.42-.54.15-.16.26-.36.42-.49.16-.13.31-.26.45-.38.27-.28.61-.39.89-.55.28-.17.56-.24.8-.3.48-.12.81-.04,1.02.01.21.06.32.13.32.13,0,.02.12.03.3.2.2.13.46.43.75.89.59.91,1.12,2.59,1.45,4.7.68,4.25.65,10.23.28,16.44-.19,3.11-.46,6.29-.78,9.38-.17,1.54-.34,3.06-.5,4.54-.18,1.45-.36,2.87-.53,4.22-.23,1.69-.42,3.08-.51,3.77-.35,2.56-.29,4.04-.1,6.26.88-2.05,1.39-3.46,1.77-6.02.1-.7.29-2.09.52-3.78.17-1.36.35-2.78.53-4.24.16-1.49.33-3.02.51-4.57.32-3.11.59-6.31.78-9.45.37-6.28.41-12.33-.3-16.81-.36-2.24-.91-4.1-1.69-5.32-.39-.61-.79-1.07-1.14-1.32-.32-.28-.57-.35-.55-.37,0,0-.2-.13-.63-.26-.42-.13-1.11-.23-1.86-.05-.37.09-.78.2-1.16.43-.38.22-.84.39-1.21.75-.19.16-.39.33-.6.51-.2.18-.35.4-.53.61-.17.22-.37.43-.52.68-.14.25-.29.5-.44.76-1.17,2.1-1.77,4.77-2.09,7.64-.32,2.88-.34,5.98-.21,9.14.28,6.32,1.2,12.85,2.16,18.34.25,1.34.48,2.62.71,3.82.07.38.14.73.21,1.05.13.64.24,1.16.31,1.5.54,2.54,1.14,3.92,2.17,5.9Z"/>
              <path class="st9" d="M94.47,459.51c-1.49-1.66-2.59-2.71-4.81-4.05-.3-.18-.76-.45-1.33-.78-.29-.16-.6-.34-.93-.53-.71-.4-1.64-.91-2.53-1.38-3.65-1.91-8.1-3.98-12.69-5.17-2.29-.59-4.62-.95-6.83-.84-2.2.09-4.3.76-5.73,1.9-1.48,1.1-2.16,2.48-2.63,3.36-.43.92-.53,1.53-.53,1.53,0,0-.04.14-.09.43-.04.29-.1.71-.06,1.27.04.56.21,1.27.61,1.96.4.69,1.03,1.33,1.78,1.84,1.51,1.02,3.46,1.63,5.56,2.05,2.11.42,4.4.63,6.73.74,4.65.2,9.57-.05,13.58-.37,1.71-.14,3.11-.28,3.81-.36,2.58-.29,4.02-.76,6.08-1.59-2.21-.23-3.69-.34-6.25-.08-.69.06-2.08.19-3.78.34-3.97.32-8.83.56-13.37.37-2.28-.1-4.49-.31-6.48-.7-1.98-.39-3.75-.97-4.94-1.79-1.21-.81-1.62-1.81-1.66-2.53-.02-.37.01-.67.04-.87.04-.21.07-.32.07-.32,0,0,.07-.44.42-1.21.4-.73.95-1.86,2.12-2.72,1.13-.9,2.83-1.47,4.79-1.55,1.96-.1,4.14.23,6.32.79,4.37,1.13,8.74,3.16,12.32,5.03.88.46,1.79.96,2.49,1.36.33.19.64.36.92.52.56.32,1.01.59,1.31.76,2.21,1.31,3.59,1.84,5.67,2.61Z"/>
              <path class="st9" d="M95.92,460.23c1.81-1.3,2.99-2.18,4.76-4.04.24-.25.61-.62,1.06-1.09.23-.23.48-.48.74-.75.52-.51,1.08-1.06,1.67-1.63,2.4-2.28,5.35-4.88,8.45-6.89,1.55-1,3.13-1.85,4.65-2.37,1.52-.52,2.96-.67,4.05-.4,1.1.25,1.8.89,2.26,1.35.38.52.62.81.59.81-.08,0,.62.73.27,1.96-.31,1.26-1.99,2.85-4.18,4.1-4.38,2.58-10.48,4.49-14.8,5.73-1.89.53-3.07.83-3.69.99-2.49.64-3.84,1.25-5.84,2.22,2.23.08,3.74.03,6.26-.59.62-.16,1.82-.46,3.73-1,4.38-1.26,10.53-3.17,15.2-5.9,1.16-.69,2.23-1.43,3.1-2.28.86-.84,1.58-1.78,1.84-2.82.1-.24.11-.49.13-.73,0-.24.06-.46.02-.67-.08-.41-.11-.78-.22-1.04-.23-.51-.36-.8-.36-.8.02-.02-.27-.42-.8-1.11-.59-.61-1.59-1.51-3.12-1.87-1.51-.37-3.29-.14-4.99.44-1.71.58-3.4,1.5-5.03,2.55-3.25,2.11-6.26,4.76-8.7,7.09-.59.58-1.16,1.14-1.69,1.66-.27.27-.52.53-.75.77-.46.47-.82.86-1.07,1.11-1.78,1.9-2.56,3.2-3.54,5.2Z"/>
            </g>
            <path class="st15" d="M73.05,487.09c0,2.41-1.95,4.36-4.36,4.36s-4.36-1.95-4.36-4.36,1.95-4.36,4.36-4.36,4.36,1.95,4.36,4.36Z"/>
            <path class="st15" d="M98.46,492.54c0,2.41-1.95,4.36-4.36,4.36s-4.36-1.95-4.36-4.36,1.95-4.36,4.36-4.36,4.36,1.95,4.36,4.36Z"/>
            <path class="st15" d="M91.2,513.23c0,2.41-1.95,4.36-4.36,4.36s-4.36-1.95-4.36-4.36,1.95-4.36,4.36-4.36,4.36,1.95,4.36,4.36Z"/>
            <circle class="st15" cx="111.89" cy="510.69" r="4.36"/>
            <path class="st15" d="M136.21,499.44c0,2.41-1.95,4.36-4.36,4.36s-4.36-1.95-4.36-4.36,1.95-4.36,4.36-4.36,4.36,1.95,4.36,4.36Z"/>
            <path class="st15" d="M68.33,505.97c0,2.41-1.95,4.36-4.36,4.36s-4.36-1.95-4.36-4.36,1.95-4.36,4.36-4.36,4.36,1.95,4.36,4.36Z"/>
            <path class="st15" d="M59.62,526.66c0,2.41-1.95,4.36-4.36,4.36s-4.36-1.95-4.36-4.36,1.95-4.36,4.36-4.36,4.36,1.95,4.36,4.36Z"/>
            <path class="st15" d="M83.22,533.19c0,2.41-1.95,4.36-4.36,4.36s-4.36-1.95-4.36-4.36,1.95-4.36,4.36-4.36,4.36,1.95,4.36,4.36Z"/>
            <path class="st15" d="M110.8,533.19c0,2.41-1.95,4.36-4.36,4.36s-4.36-1.95-4.36-4.36,1.95-4.36,4.36-4.36,4.36,1.95,4.36,4.36Z"/>
            <path class="st15" d="M137.67,523.03c0,2.41-1.95,4.36-4.36,4.36s-4.36-1.95-4.36-4.36,1.95-4.36,4.36-4.36,4.36,1.95,4.36,4.36Z"/>
            <path class="st15" d="M122.42,485.64c0,2.41-1.95,4.36-4.36,4.36s-4.36-1.95-4.36-4.36,1.95-4.36,4.36-4.36,4.36,1.95,4.36,4.36Z"/>
          </g>
          <g>
            <path class="st15" d="M633.9,777.81c-.15-.85,2.87-13.33,10.15-14.14,7.29-.81,12.92,12.72,12.92,12.72l-23.08,1.42Z"/>
            <path class="st9" d="M641.82,767.46c.04-2.23.04-3.71-.42-6.24-.06-.34-.15-.86-.26-1.5-.05-.32-.11-.67-.18-1.05-.14-.88-.29-1.82-.44-2.8-.59-4-1.13-8.76-1.19-13.29-.07-4.51.41-8.9,1.77-11.58.64-1.33,1.57-2.15,2.17-2.44.59-.27.7-.06.73-.09,0,0,.23,0,.66.64.41.63.84,1.82,1.14,3.35.62,3.08.86,7.44.88,12.01.03,4.55-.16,9.4-.38,13.37-.1,1.7-.18,3.1-.23,3.79-.16,2.57.02,4.05.36,6.25.73-2.11,1.13-3.55,1.32-6.14.04-.7.13-2.1.24-3.81.22-4,.41-8.87.38-13.47-.03-4.62-.26-9.05-.92-12.33-.33-1.64-.78-3-1.38-3.94-.29-.47-.67-.81-.95-1.02-.31-.19-.5-.26-.5-.26,0,.01-.19-.1-.57-.14-.39-.07-.96.02-1.5.28-1.06.52-2.17,1.61-2.96,3.2-1.59,3.17-2.01,7.72-1.96,12.36.06,4.66.61,9.47,1.21,13.52.16.99.31,1.94.45,2.83.07.38.13.73.18,1.06.12.64.21,1.16.28,1.51.49,2.55,1.07,3.95,2.08,5.93Z"/>
            <g>
              <circle class="st16" cx="650.17" cy="837.08" r="61.38" transform="translate(-164.55 159.1) rotate(-12.4)"/>
              <path class="st15" d="M598.09,869.55s59.61,33.37,112.03-21.12c0,0-5.23,41.34-51.13,49.73,0,0-37.75,5.51-60.89-28.61Z"/>
              <path class="st15" d="M615.98,821.06s39.95,39.45,62.98-13.76l-34.54-29.8-28.43,43.57Z"/>
              <path class="st1" d="M591.06,821.93s50.39,11.48,53.58-40.54c0,0,8.08,38.97,56,20.97,0,0-15.5-30.65-61.34-26.29,0,0-34.91,6.77-48.25,45.86Z"/>
              <path class="st1" d="M654.29,810.13c-.5,3.27-3.56,5.51-6.83,5.01-3.27-.5-5.51-3.56-5.01-6.83.5-3.27,3.56-5.51,6.83-5.01,3.27.5,5.51,3.56,5.01,6.83Z"/>
              <path class="st1" d="M664.65,889.94c-.5,3.27-3.56,5.51-6.83,5.01-3.27-.5-5.51-3.56-5.01-6.83.5-3.27,3.56-5.51,6.83-5.01,3.27.5,5.51,3.56,5.01,6.83Z"/>
              <path class="st15" d="M590.22,839.98s74.79,36.8,114.4-27.64c0,0,11.93,46.17-28.96,30.82,0,0-13.86,38.36-39.24,8.04,0,0-25.23,38.83-46.21-11.21Z"/>
            </g>
          </g>
          <g>
            <g>
              <circle class="st1" cx="104.21" cy="103.58" r="44.9"/>
              <path class="st2" d="M68.06,130.22s9.26,2.18,14.7-13.07c0,0,25.32,33.49,43.02-4.36,0,0,6.26,14.43,18.24,11.71,0,0,6.53-13.07,4.36-24.5l-43.02-7.08-46.28,6.53s-1.63,16.33,8.98,30.76Z"/>
              <path class="st2" d="M77.59,67.33s25.05,30.49,49-2.18c0,0-21.24-16.88-49,2.18Z"/>
              <path class="st4" d="M63.43,85.84s42.47,16.88,78.41-5.99c0,0,8.54,11.51,7.27,23.72,0,0-29.05,20.92-43.75-7.93,0,0-18.51,40.84-46.28,5.99,0,0,1.09-11.43,4.36-15.79Z"/>
              <path class="st15" d="M128.91,127.23c0,1.28-1.04,2.31-2.31,2.31s-2.31-1.04-2.31-2.31,1.04-2.31,2.31-2.31,2.31,1.04,2.31,2.31Z"/>
              <path class="st15" d="M86.98,129.68c0,1.28-1.04,2.31-2.31,2.31s-2.31-1.04-2.31-2.31,1.04-2.31,2.31-2.31,2.31,1.04,2.31,2.31Z"/>
              <circle class="st15" cx="105.9" cy="112.25" r="2.31"/>
              <circle class="st15" cx="66.43" cy="117.15" r="2.31"/>
              <path class="st15" d="M143.07,114.16c0,1.28-1.04,2.31-2.31,2.31s-2.31-1.04-2.31-2.31,1.04-2.31,2.31-2.31,2.31,1.04,2.31,2.31Z"/>
              <circle class="st15" cx="76.77" cy="81.76" r="2.31"/>
              <circle class="st15" cx="101.82" cy="86.12" r="2.31"/>
              <circle class="st15" cx="126.32" cy="79.04" r="2.31"/>
              <path class="st15" d="M86.3,62.16s4.9-19.06,16.88-19.6c11.98-.54,19.33,20.42,19.33,20.42,0,0-14.16-9.8-36.21-.82Z"/>
              <path class="st9" d="M102.09,45.55c.14-2.22.19-3.7-.18-6.25-.05-.35-.12-.86-.21-1.51-.04-.32-.09-.67-.14-1.05-.13-1.06-.27-2.2-.42-3.38-.56-4.85-1.04-10.61-.95-16.09.05-2.74.24-5.41.67-7.81.43-2.39,1.16-4.51,2.18-5.94.26-.34.54-.65.81-.9.31-.21.55-.47.87-.6.15-.08.3-.16.44-.23.14-.05.28-.09.41-.14.26-.12.48-.09.69-.13.2-.01.36.04.51.04.14.05.25.1.34.14.19.07.27.18.27.17,0,0,.1.05.26.2.15.18.4.42.64.84.5.83,1.01,2.27,1.32,4.14.64,3.74.63,9.01.2,14.49-.42,5.46-1.27,11.25-2.13,15.95-.32,1.67-.58,3.04-.71,3.73-.5,2.53-.54,4.01-.51,6.24,1.01-1.98,1.63-3.36,2.15-5.9.15-.69.42-2.07.73-3.76.87-4.74,1.73-10.59,2.15-16.13.43-5.56.45-10.93-.22-14.91-.33-1.99-.88-3.63-1.53-4.72-.31-.55-.68-.94-.93-1.2-.27-.25-.45-.36-.45-.36-.01.01-.14-.15-.5-.31-.18-.07-.41-.18-.68-.26-.28-.03-.62-.11-.97-.09-.34.04-.76.05-1.12.2-.19.07-.39.13-.59.2-.18.1-.37.2-.57.3-.4.18-.77.51-1.18.82-.37.34-.73.74-1.06,1.17-1.26,1.77-2.02,4.11-2.48,6.63-.46,2.53-.65,5.28-.71,8.08-.1,5.61.39,11.42.96,16.32.15,1.2.29,2.34.43,3.41.05.38.1.74.15,1.06.09.65.17,1.17.22,1.52.4,2.57.92,3.98,1.84,6.01Z"/>
            </g>
            <path class="st15" d="M159.54,35.89c0,4.06-3.29,7.36-7.36,7.36s-7.36-3.29-7.36-7.36,3.29-7.36,7.36-7.36,7.36,3.29,7.36,7.36Z"/>
          </g>
        </g>
        <g>
          <path class="st3" d="M268.35,1018.89c3.96,2.04,6.75,3.2,11.85,4.2.69.13,1.73.32,3.02.56.64.12,1.35.24,2.11.38,1.78.3,3.59.6,5.42.91,2.09.35,4.22.67,6.37.99,4.31.64,8.76,1.23,13.3,1.78,18.2,2.19,38.15,3.6,58.71,3.82,20.56.25,41.73-.81,62.29-3.07,10.28-1.18,20.4-2.67,30.23-4.39,9.81-1.82,19.34-3.81,28.41-6.1,18.16-4.49,34.48-9.98,48.07-15.28,13.58-5.34,24.48-10.42,31.9-14.26,1.86-.94,3.52-1.79,4.97-2.52,1.42-.78,2.62-1.44,3.6-1.97,1.95-1.07,2.98-1.63,2.98-1.63,0,0,1.03-.57,2.98-1.63,1.93-1.1,4.73-2.79,8.33-4.91,1.81-1.04,3.77-2.29,5.89-3.66,2.13-1.37,4.45-2.83,6.9-4.44,2.41-1.67,4.99-3.45,7.71-5.34,1.37-.92,2.74-1.94,4.13-2.99,1.4-1.04,2.83-2.11,4.29-3.2,11.63-8.81,24.75-20,37.8-33.43,13.05-13.41,26.09-29,37.77-46.11,11.73-17.07,22.24-35.52,31.12-54.09,4.48-9.27,8.48-18.59,12.17-27.73,1.77-4.6,3.57-9.11,5.22-13.59,1.51-4.32,2.99-8.57,4.44-12.72.28-.81.55-1.58.8-2.31.23-.73.44-1.42.64-2.04.39-1.25.7-2.26.91-2.93,1.52-4.96,1.85-7.95,2.1-12.38-2.32,3.82-3.75,6.44-5.31,11.35-.21.67-.53,1.67-.92,2.9-.2.62-.41,1.3-.64,2.03-.25.72-.52,1.49-.8,2.29-1.44,4.12-2.91,8.34-4.41,12.63-1.64,4.45-3.44,8.93-5.19,13.5-3.67,9.07-7.64,18.33-12.08,27.52-8.81,18.42-19.23,36.71-30.85,53.63-11.57,16.96-24.48,32.39-37.4,45.67-12.92,13.29-25.9,24.37-37.41,33.1-1.45,1.08-2.86,2.14-4.24,3.17-1.38,1.04-2.72,2.05-4.09,2.96-2.69,1.87-5.24,3.63-7.63,5.28-2.43,1.6-4.73,3.04-6.83,4.4-2.1,1.36-4.04,2.6-5.83,3.63-3.56,2.1-6.33,3.78-8.24,4.87-1.93,1.06-2.95,1.62-2.95,1.62,0,0-1.02.56-2.95,1.62-.96.53-2.16,1.18-3.56,1.95-1.43.72-3.07,1.56-4.92,2.49-7.35,3.81-18.14,8.84-31.6,14.13-13.47,5.25-29.64,10.69-47.66,15.15-9,2.26-18.45,4.24-28.19,6.04-9.76,1.71-19.81,3.19-30.01,4.35-20.42,2.24-41.45,3.3-61.88,3.04-20.43-.22-40.26-1.62-58.34-3.79-4.52-.55-8.93-1.13-13.21-1.77-2.14-.32-4.25-.64-6.33-.98-1.82-.31-3.62-.61-5.38-.9-.75-.13-1.45-.26-2.09-.37-1.28-.23-2.31-.42-2.99-.54-5.06-.94-8.02-.95-12.47-.9Z"/>
          <circle class="st11" cx="147.35" cy="305.96" r="3.88"/>
          <path class="st11" d="M187.92,120.01c0,4.06-3.29,7.36-7.36,7.36s-7.36-3.29-7.36-7.36,3.29-7.36,7.36-7.36,7.36,3.29,7.36,7.36Z"/>
          <path class="st15" d="M219.61,170.24c0,2.03-1.65,3.68-3.68,3.68s-3.68-1.65-3.68-3.68,1.65-3.68,3.68-3.68,3.68,1.65,3.68,3.68Z"/>
          <path class="st1" d="M269.12,245.34c0,4.64-3.76,8.4-8.4,8.4s-8.4-3.76-8.4-8.4,3.76-8.4,8.4-8.4,8.4,3.76,8.4,8.4Z"/>
          <path class="st1" d="M188.9,234.4c0,4.64-3.76,8.4-8.4,8.4s-8.4-3.76-8.4-8.4,3.76-8.4,8.4-8.4,8.4,3.76,8.4,8.4Z"/>
          <path class="st1" d="M334.82,286.67c0,4.64-3.76,8.4-8.4,8.4s-8.4-3.76-8.4-8.4,3.76-8.4,8.4-8.4,8.4,3.76,8.4,8.4Z"/>
          <path class="st1" d="M102.06,347.77c0,3.17-2.57,5.75-5.75,5.75s-5.75-2.57-5.75-5.75,2.57-5.75,5.75-5.75,5.75,2.57,5.75,5.75Z"/>
          <path class="st15" d="M121.5,391.05c0,1.73-1.4,3.13-3.13,3.13s-3.13-1.4-3.13-3.13,1.4-3.13,3.13-3.13,3.13,1.4,3.13,3.13Z"/>
          <circle class="st11" cx="307.33" cy="462.77" r="4.36"/>
          <circle class="st15" cx="71.6" cy="379.28" r="4.36"/>
          <path class="st15" d="M178.38,381.79c0,4.23-3.43,7.66-7.66,7.66s-7.66-3.43-7.66-7.66,3.43-7.66,7.66-7.66,7.66,3.43,7.66,7.66Z"/>
          <circle class="st15" cx="312.6" cy="743.37" r="12.71"/>
          <circle class="st1" cx="272.7" cy="879.85" r="12.71"/>
          <circle class="st1" cx="496.67" cy="909.26" r="12.71"/>
          <circle class="st1" cx="444.04" cy="754.03" r="7.86"/>
          <circle class="st11" cx="496.31" cy="637.87" r="7.86"/>
          <path class="st1" d="M339.83,1026.5c0,7.02-5.69,12.71-12.71,12.71s-12.71-5.69-12.71-12.71,5.69-12.71,12.71-12.71,12.71,5.69,12.71,12.71Z"/>
          <circle class="st1" cx="575.41" cy="911.8" r="12.71"/>
          <path class="st1" d="M214.29,998.56c0,4.23-3.43,7.66-7.66,7.66s-7.66-3.43-7.66-7.66,3.43-7.66,7.66-7.66,7.66,3.43,7.66,7.66Z"/>
          <path class="st11" d="M185.98,843.92c0,4.23-3.43,7.66-7.66,7.66s-7.66-3.43-7.66-7.66,3.43-7.66,7.66-7.66,7.66,3.43,7.66,7.66Z"/>
          <path class="st11" d="M367.81,752.45c0,4.23-3.43,7.66-7.66,7.66s-7.66-3.43-7.66-7.66,3.43-7.66,7.66-7.66,7.66,3.43,7.66,7.66Z"/>
          <circle class="st11" cx="357.57" cy="521.66" r="4.22"/>
          <circle class="st11" cx="292.44" cy="565.14" r="4.22"/>
          <path class="st15" d="M103.83,606.52c0,5.77-4.68,10.45-10.45,10.45s-10.45-4.68-10.45-10.45,4.68-10.45,10.45-10.45,10.45,4.68,10.45,10.45Z"/>
          <path class="st1" d="M624.37,691.46c0,5.77-4.68,10.45-10.45,10.45s-10.45-4.68-10.45-10.45,4.68-10.45,10.45-10.45,10.45,4.68,10.45,10.45Z"/>
          <path class="st1" d="M160.46,562.96c0,5.77-4.68,10.45-10.45,10.45s-10.45-4.68-10.45-10.45,4.68-10.45,10.45-10.45,10.45,4.68,10.45,10.45Z"/>
          <circle class="st1" cx="73.49" cy="798.18" r="10.45"/>
          <circle class="st11" cx="95.56" cy="674.05" r="4.37"/>
          <circle class="st11" cx="583.41" cy="789.47" r="4.37"/>
          <circle class="st11" cx="320.62" cy="664.62" r="4.37"/>
          <circle class="st11" cx="71.6" cy="1022.52" r="4.37"/>
          <circle class="st11" cx="346.03" cy="904.91" r="4.37"/>
          <circle class="st11" cx="282.87" cy="1062.46" r="4.37"/>
          <circle class="st1" cx="170.4" cy="435.12" r="5.88"/>
          <circle class="st1" cx="67.24" cy="165.05" r="5.88"/>
          <circle class="st1" cx="493.47" cy="680.57" r="5.88"/>
          <circle class="st1" cx="94.48" cy="722.04" r="7.45"/>
          <circle class="st1" cx="343.85" cy="597.81" r="7.45"/>
          <path class="st11" d="M318.71,427.2c0,1.76-1.42,3.18-3.18,3.18s-3.18-1.42-3.18-3.18,1.42-3.18,3.18-3.18,3.18,1.42,3.18,3.18Z"/>
        </g>
        <g>
          <path class="st3" d="M34.57,366.94c1.56,4.18,2.87,6.91,6.02,11.05.43.56,1.08,1.39,1.89,2.42.41.51.86,1.07,1.34,1.67.72.88,1.45,1.78,2.19,2.69.85,1.02,1.71,2.05,2.58,3.1,1.76,2.09,3.6,4.2,5.5,6.35,7.61,8.58,16.33,17.55,25.78,26.27,9.44,8.74,19.65,17.18,30.04,24.9,10.41,7.69,20.99,14.65,31.13,20.49,10.11,5.88,19.73,10.71,28.05,14.45,8.33,3.73,15.32,6.48,20.24,8.24,2.44.93,4.39,1.55,5.7,2,1.32.45,2.01.68,2.01.68,0,0,.7.24,2.01.68,1.33.41,3.28,1.01,5.78,1.78,2.49.8,5.58,1.58,9.11,2.58,3.57.87,7.59,1.95,12.06,2.86,8.92,1.93,19.54,3.73,31.2,4.84,11.65,1.12,24.34,1.53,37.28,1,12.95-.52,26.14-1.98,38.82-4.22,1.58-.28,3.17-.53,4.73-.84,1.56-.32,3.12-.64,4.67-.96,1.55-.32,3.09-.64,4.62-.96,1.52-.37,3.03-.73,4.53-1.09,3-.71,5.96-1.41,8.83-2.24,1.44-.39,2.87-.79,4.28-1.17.71-.19,1.41-.39,2.11-.58.59-.18,1.17-.35,1.75-.53,3.28-1.02,5.97-1.85,7.32-2.27,4.94-1.62,7.53-3.19,11.26-5.58-4.46.37-7.38.82-12.29,2.38-1.33.41-4,1.23-7.25,2.22-.57.17-1.15.35-1.73.53-.69.19-1.39.38-2.09.57-1.4.38-2.81.77-4.24,1.16-2.84.82-5.77,1.51-8.74,2.22-1.48.36-2.98.72-4.48,1.08-1.51.31-3.04.63-4.57.95-1.53.32-3.07.63-4.62.95-1.55.31-3.12.55-4.68.83-12.54,2.22-25.58,3.66-38.37,4.17-12.79.53-25.32.12-36.83-.99-11.51-1.09-22-2.87-30.81-4.77-4.42-.89-8.39-1.96-11.91-2.82-3.49-.99-6.54-1.75-9-2.55-2.47-.76-4.4-1.35-5.71-1.76-1.3-.44-1.99-.67-1.99-.67,0,0-.69-.23-1.99-.67-1.3-.44-3.22-1.06-5.64-1.98-4.86-1.74-11.77-4.46-20.01-8.15-8.23-3.7-17.73-8.48-27.74-14.3-10.02-5.78-20.5-12.68-30.81-20.29-10.29-7.64-20.4-16.01-29.75-24.67-9.37-8.64-18.01-17.53-25.55-26.03-1.88-2.13-3.7-4.22-5.44-6.29-.86-1.04-1.72-2.06-2.56-3.07-.73-.9-1.46-1.79-2.17-2.66-.48-.59-.92-1.15-1.33-1.65-.8-1.02-1.45-1.84-1.88-2.38-3.16-4.06-5.36-6.03-8.68-8.98Z"/>
          <path class="st3" d="M-16.25,690.74c2.71,3.54,4.7,5.8,8.83,8.93.56.42,1.41,1.05,2.45,1.83.52.39,1.1.82,1.72,1.27,1.68,1.22,3.38,2.46,5.11,3.72,1.99,1.42,4.01,2.85,6.05,4.31,4.1,2.9,8.36,5.82,12.73,8.78,17.5,11.81,37.06,23.96,57.74,35.52,10.33,5.79,20.96,11.41,31.74,16.76,10.78,5.34,21.68,10.51,32.63,15.21,10.95,4.7,21.85,9.19,32.67,13.09,2.69,1.02,5.39,1.96,8.07,2.89,2.68.92,5.33,1.88,7.99,2.75,5.32,1.7,10.53,3.46,15.72,4.93,10.31,3.15,20.35,5.64,29.83,7.89,4.76,1.04,9.38,2.02,13.85,2.92,4.49.79,8.8,1.64,12.96,2.28,4.16.6,8.13,1.24,11.92,1.72,3.79.43,7.38.84,10.74,1.23,3.37.27,6.52.53,9.43.76,1.45.1,2.85.25,4.18.3,1.33.06,2.6.11,3.81.16,4.82.2,8.58.39,11.15.34,2.56,0,3.92.01,3.92.01,0,0,1.36,0,3.92.01,2.56.02,6.33-.21,11.15-.36,9.62-.56,23.49-1.54,40.04-4.84,16.53-3.26,35.72-8.91,55.37-17.98,4.98-2.13,9.8-4.82,14.78-7.4l1.87-.98c.62-.33,1.21-.71,1.82-1.07,1.21-.72,2.43-1.45,3.66-2.18,1.22-.73,2.45-1.46,3.68-2.2,1.22-.75,2.49-1.43,3.67-2.27,2.39-1.61,4.8-3.24,7.22-4.87,1.2-.83,2.44-1.61,3.62-2.48,1.17-.89,2.34-1.77,3.52-2.66,2.35-1.78,4.71-3.57,7.08-5.36,2.27-1.91,4.55-3.84,6.84-5.76,4.66-3.76,8.91-8.03,13.33-12.13l1.65-1.55c.55-.52,1.05-1.08,1.58-1.62l3.13-3.27,6.25-6.55c1.97-2.28,3.94-4.57,5.91-6.85l2.95-3.42c.49-.57.99-1.13,1.46-1.71l1.39-1.78c1.85-2.37,3.69-4.73,5.53-7.08.92-1.18,1.84-2.35,2.76-3.53.89-1.19,1.73-2.42,2.59-3.63,1.71-2.42,3.42-4.84,5.12-7.24.84-1.21,1.72-2.39,2.53-3.61.79-1.23,1.58-2.46,2.37-3.69,1.57-2.45,3.14-4.9,4.69-7.32.77-1.22,1.55-2.43,2.32-3.63.72-1.24,1.44-2.47,2.15-3.7,1.43-2.46,2.85-4.9,4.25-7.32,1.41-2.42,2.83-4.81,4.07-7.27,2.46-4.67,4.87-9.26,7.23-13.74,1.48-3.1,2.69-5.63,3.29-6.9,2.21-4.7,2.95-7.61,3.83-11.95-2.84,3.46-4.62,5.84-6.86,10.49-.6,1.26-1.82,3.78-3.29,6.85-2.34,4.45-4.74,9-7.18,13.64-1.23,2.44-2.65,4.81-4.04,7.21-1.4,2.4-2.8,4.82-4.22,7.26-.71,1.22-1.42,2.44-2.13,3.67-.76,1.2-1.53,2.4-2.3,3.6-1.54,2.41-3.09,4.83-4.65,7.26-.78,1.22-1.56,2.44-2.35,3.66-.81,1.21-1.67,2.38-2.51,3.58-1.69,2.38-3.38,4.77-5.08,7.17-.86,1.2-1.69,2.41-2.57,3.6-.91,1.16-1.82,2.33-2.73,3.49-1.82,2.33-3.65,4.67-5.48,7.01l-1.37,1.76c-.47.58-.97,1.13-1.45,1.7l-2.92,3.38c-1.95,2.26-3.9,4.51-5.85,6.77l-6.18,6.48-3.09,3.23c-.52.53-1.02,1.09-1.56,1.6l-1.63,1.53c-4.37,4.05-8.56,8.27-13.16,11.98-2.26,1.9-4.51,3.8-6.75,5.69-2.34,1.77-4.67,3.53-6.99,5.29-1.16.88-2.32,1.75-3.47,2.63-1.17.86-2.39,1.63-3.58,2.44-2.39,1.61-4.76,3.21-7.12,4.8-1.16.83-2.42,1.49-3.62,2.24-1.21.72-2.42,1.45-3.63,2.17-1.21.72-2.41,1.44-3.6,2.15-.6.35-1.19.73-1.8,1.06l-1.84.97c-4.91,2.55-9.67,5.2-14.57,7.3-19.37,8.95-38.29,14.52-54.61,17.74-16.34,3.25-30.05,4.23-39.55,4.78-4.77.15-8.49.38-11.03.36-2.54,0-3.88-.01-3.88-.01,0,0-1.34,0-3.88-.01-2.54.05-6.26-.14-11.03-.34-1.19-.05-2.45-.1-3.77-.16-1.32-.05-2.7-.2-4.14-.3-2.88-.23-6-.48-9.34-.75-3.33-.38-6.88-.79-10.64-1.22-3.75-.48-7.68-1.12-11.81-1.71-4.12-.64-8.4-1.49-12.85-2.27-4.43-.89-9.02-1.87-13.74-2.9-9.41-2.23-19.38-4.71-29.62-7.84-5.15-1.47-10.33-3.21-15.61-4.9-2.64-.86-5.27-1.82-7.94-2.73-2.67-.92-5.35-1.85-8.02-2.87-10.75-3.88-21.6-8.34-32.49-13.02-10.89-4.68-21.73-9.82-32.47-15.14-10.73-5.33-21.3-10.92-31.59-16.69-20.59-11.51-40.07-23.61-57.5-35.37-4.36-2.94-8.59-5.85-12.67-8.74-2.04-1.45-4.05-2.88-6.02-4.29-1.72-1.25-3.42-2.48-5.09-3.7-.61-.45-1.19-.88-1.71-1.26-1.04-.77-1.89-1.4-2.45-1.81-4.14-3.08-6.8-4.39-10.85-6.24Z"/>
          <path class="st3" d="M10.62-14.21c.12,4.46.45,7.47,2.07,12.41.23.67.56,1.67.98,2.91.22.62.45,1.3.71,2.02.38,1.07.77,2.15,1.17,3.25.46,1.24.92,2.49,1.4,3.76.96,2.54,1.97,5.14,3.04,7.78,4.26,10.58,9.37,21.93,15.21,33.32,5.84,11.39,12.4,22.83,19.4,33.64,13.92,21.69,29.84,40.62,42.69,53.46,6.4,6.45,12,11.42,15.91,14.85,3.99,3.35,6.23,5.23,6.23,5.23,0,0,2.3,1.82,6.39,5.04,4.18,3.1,10.15,7.62,17.84,12.48,7.67,4.88,16.98,10.22,27.53,15.19,10.55,4.97,22.33,9.6,34.73,13.21,12.39,3.63,25.35,6.33,38.07,7.99,3.18.4,6.34.84,9.48,1.07,3.14.27,6.24.61,9.31.73,1.53.08,3.06.17,4.57.25.76.04,1.51.08,2.26.12.75.01,1.5.03,2.24.04,1.49.03,2.96.06,4.42.08.73.01,1.46.03,2.18.04l1.08.02h.74c3.44-.07,6.26-.12,7.66-.15,2.6-.02,4.63-.36,6.54-.71,1.91-.38,3.71-.88,5.83-1.53-2.19-.43-4.02-.75-5.95-.94-1.92-.21-3.94-.18-6.51-.19-1.39.02-4.18.06-7.58.11h-.73s-1.07,0-1.07,0c-.71-.01-1.43-.03-2.15-.04-1.44-.03-2.9-.06-4.37-.08-.73-.01-1.47-.03-2.21-.04-.74-.04-1.48-.08-2.23-.12-1.49-.08-3-.16-4.51-.25-3.03-.12-6.1-.45-9.2-.72-3.1-.23-6.22-.66-9.36-1.06-12.55-1.64-25.34-4.3-37.56-7.88-12.23-3.56-23.84-8.12-34.24-13.02-10.41-4.9-19.59-10.16-27.16-14.98-7.6-4.78-13.49-9.25-17.61-12.31-4.04-3.18-6.31-4.97-6.31-4.97,0,0-2.22-1.86-6.15-5.17-3.86-3.39-9.38-8.3-15.71-14.68-12.7-12.69-28.44-31.43-42.24-52.92-6.93-10.71-13.44-22.05-19.23-33.34-5.79-11.29-10.86-22.55-15.09-33.04-1.06-2.62-2.06-5.2-3.01-7.72-.47-1.26-.93-2.5-1.38-3.73-.39-1.09-.78-2.16-1.16-3.22-.25-.72-.49-1.39-.7-2-.42-1.23-.76-2.21-.99-2.87-1.65-4.88-3.07-7.46-5.26-11.34Z"/>
        </g>
      </g>
    </g>
  </g>
</svg>