<?xml version="1.0" encoding="UTF-8"?>
<svg id="Layer_1" xmlns="http://www.w3.org/2000/svg" version="1.1" viewBox="0 0 512 512">
  <!-- Generator: Adobe Illustrator 29.8.3, SVG Export Plug-In . SVG Version: 2.1.1 Build 3)  -->
  <defs>
    <style>
      .st0 {
        fill: #fff;
      }
    </style>
  </defs>
  <g>
    <path class="st0" d="M256.96,230.19c-4.41,0-7.98-3.57-7.98-7.98V12.25c0-4.41,3.57-7.98,7.98-7.98s7.98,3.57,7.98,7.98v209.95c0,4.41-3.57,7.98-7.98,7.98Z"/>
    <path class="st0" d="M256.28,162.59c-2.04,0-4.09-.78-5.64-2.34l-69.64-69.64c-3.12-3.12-3.12-8.17,0-11.29,3.11-3.12,8.17-3.12,11.29,0l64,63.99,62.63-62.63c3.11-3.12,8.17-3.12,11.29,0,3.12,3.12,3.12,8.17,0,11.29l-68.28,68.28c-1.56,1.56-3.6,2.34-5.64,2.34Z"/>
    <path class="st0" d="M255.98,90.39c-2.04,0-4.09-.78-5.64-2.34l-34.59-34.59c-3.12-3.12-3.12-8.17,0-11.29,3.11-3.12,8.17-3.12,11.29,0l28.94,28.94,29.92-29.92c3.11-3.12,8.17-3.12,11.29,0,3.12,3.12,3.12,8.17,0,11.29l-35.57,35.57c-1.56,1.56-3.6,2.34-5.64,2.34Z"/>
  </g>
  <g>
    <path class="st0" d="M227,245.9c-1.35,0-2.73-.35-3.98-1.07L41.19,139.86c-3.82-2.2-5.13-7.09-2.92-10.91,2.2-3.82,7.09-5.13,10.91-2.92l181.82,104.97c3.82,2.2,5.13,7.09,2.92,10.9-1.48,2.56-4.16,3.99-6.92,3.99Z"/>
    <path class="st0" d="M72.99,238.19c-3.52,0-6.75-2.35-7.7-5.92-1.14-4.26,1.39-8.64,5.64-9.78l87.42-23.42-22.92-85.56c-1.14-4.26,1.39-8.64,5.64-9.78,4.25-1.15,8.63,1.38,9.78,5.64l24.99,93.27c.55,2.04.26,4.22-.8,6.06s-2.8,3.17-4.85,3.72l-95.13,25.49c-.69.19-1.39.27-2.07.27Z"/>
    <path class="st0" d="M58.2,189.52c-3.52,0-6.75-2.35-7.7-5.92-1.14-4.26,1.39-8.64,5.64-9.78l39.53-10.59-10.95-40.87c-1.14-4.26,1.39-8.64,5.64-9.78,4.26-1.15,8.64,1.38,9.78,5.64l13.02,48.58c.55,2.04.26,4.22-.8,6.06-1.06,1.83-2.8,3.17-4.85,3.72l-47.25,12.66c-.69.19-1.39.27-2.07.27Z"/>
  </g>
  <g>
    <path class="st0" d="M43.83,384.67c-2.76,0-5.44-1.43-6.92-3.99-2.2-3.82-.9-8.7,2.92-10.91l181.82-104.97c3.82-2.21,8.7-.9,10.91,2.92,2.2,3.82.9,8.7-2.92,10.91l-181.82,104.97c-1.26.73-2.63,1.07-3.98,1.07Z"/>
    <path class="st0" d="M141.96,409.22c-.68,0-1.38-.09-2.07-.27-4.26-1.14-6.79-5.52-5.64-9.78l23.42-87.42-85.55-22.93c-4.26-1.14-6.79-5.52-5.64-9.78,1.14-4.26,5.52-6.8,9.78-5.64l93.27,24.99c4.26,1.14,6.79,5.52,5.64,9.78l-25.49,95.13c-.96,3.57-4.18,5.92-7.7,5.92Z"/>
    <path class="st0" d="M92.41,397.69c-.68,0-1.38-.09-2.07-.27-4.26-1.14-6.79-5.52-5.64-9.78l10.59-39.54-40.87-10.95c-4.26-1.14-6.79-5.52-5.64-9.78,1.14-4.26,5.52-6.8,9.78-5.64l48.58,13.02c4.26,1.14,6.79,5.52,5.64,9.78l-12.66,47.25c-.96,3.57-4.18,5.92-7.7,5.92Z"/>
  </g>
  <g>
    <path class="st0" d="M254.23,507.73c-4.41,0-7.98-3.57-7.98-7.98v-209.95c0-4.41,3.57-7.98,7.98-7.98s7.98,3.57,7.98,7.98v209.95c0,4.41-3.57,7.98-7.98,7.98Z"/>
    <path class="st0" d="M324.55,435.01c-2.04,0-4.09-.78-5.64-2.34l-64-64-62.63,62.63c-3.11,3.12-8.17,3.12-11.29,0-3.12-3.12-3.12-8.17,0-11.29l68.28-68.28c3.11-3.12,8.17-3.12,11.29,0l69.64,69.64c3.12,3.12,3.12,8.17,0,11.29-1.56,1.56-3.6,2.34-5.64,2.34Z"/>
    <path class="st0" d="M219.64,473.14c-2.04,0-4.09-.78-5.64-2.34-3.12-3.12-3.12-8.17,0-11.29l35.57-35.57c2.99-2.99,8.3-2.99,11.29,0l34.59,34.59c3.12,3.12,3.12,8.17,0,11.29-3.11,3.12-8.17,3.12-11.29,0l-28.94-28.94-29.92,29.92c-1.56,1.56-3.6,2.34-5.64,2.34Z"/>
  </g>
  <g>
    <path class="st0" d="M465.99,387.04c-1.35,0-2.73-.35-3.98-1.07l-181.82-104.98c-3.82-2.2-5.13-7.09-2.92-10.91,2.2-3.82,7.09-5.13,10.91-2.92l181.82,104.98c3.82,2.2,5.13,7.09,2.92,10.9-1.48,2.56-4.16,3.99-6.92,3.99Z"/>
    <path class="st0" d="M368.04,408.54c-3.52,0-6.75-2.35-7.7-5.92l-24.99-93.27c-.55-2.04-.26-4.22.8-6.06,1.06-1.83,2.8-3.17,4.85-3.72l95.13-25.49c4.25-1.15,8.63,1.38,9.78,5.64,1.14,4.26-1.39,8.64-5.64,9.78l-87.42,23.42,22.92,85.56c1.14,4.26-1.39,8.64-5.64,9.78-.69.19-1.39.27-2.07.27Z"/>
    <path class="st0" d="M418.75,399.7c-3.52,0-6.75-2.35-7.7-5.92l-13.02-48.58c-1.14-4.26,1.39-8.64,5.64-9.78l47.25-12.66c4.26-1.15,8.64,1.38,9.78,5.64,1.14,4.26-1.39,8.64-5.64,9.78l-39.53,10.6,10.95,40.87c1.14,4.26-1.39,8.64-5.64,9.78-.69.19-1.39.27-2.07.27Z"/>
  </g>
  <g>
    <path class="st0" d="M285.55,248.27c-2.76,0-5.44-1.43-6.92-3.99-2.2-3.82-.9-8.7,2.92-10.91l181.82-104.98c3.82-2.21,8.7-.9,10.91,2.92,2.2,3.82.9,8.7-2.92,10.91l-181.82,104.98c-1.26.73-2.63,1.07-3.98,1.07Z"/>
    <path class="st0" d="M437.01,238.87c-.68,0-1.38-.09-2.07-.27l-93.27-24.99c-4.26-1.14-6.79-5.52-5.64-9.78l25.49-95.13c1.14-4.26,5.52-6.8,9.78-5.64,4.26,1.14,6.79,5.52,5.64,9.78l-23.42,87.42,85.55,22.93c4.26,1.14,6.79,5.52,5.64,9.78-.96,3.57-4.18,5.92-7.7,5.92Z"/>
    <path class="st0" d="M454.71,190.54c-.68,0-1.38-.09-2.07-.27l-48.59-13.02c-2.04-.55-3.79-1.88-4.85-3.72s-1.35-4.01-.8-6.06l12.66-47.25c1.14-4.26,5.51-6.8,9.78-5.64,4.26,1.14,6.79,5.52,5.64,9.78l-10.59,39.53,40.87,10.95c4.26,1.14,6.79,5.52,5.64,9.78-.96,3.57-4.18,5.92-7.7,5.92Z"/>
  </g>
  <path class="st0" d="M255.59,297.78c-23.04,0-41.78-18.74-41.78-41.78s18.74-41.78,41.78-41.78,41.78,18.74,41.78,41.78-18.74,41.78-41.78,41.78ZM255.59,230.19c-14.23,0-25.81,11.58-25.81,25.81s11.58,25.81,25.81,25.81,25.81-11.58,25.81-25.81-11.58-25.81-25.81-25.81Z"/>
  <g>
    <path class="st0" d="M225.36,163.54l-28.1-27.66c-2.53-2.5-6.42-3.01-9.52-1.26-3.1,1.75-4.67,5.34-3.85,8.8l9.58,40.34c.5,2.1,1.83,3.91,3.69,5.02l18.71,11.12c1.26.75,2.67,1.12,4.08,1.12s2.74-.35,3.97-1.06c2.5-1.43,4.03-4.1,4.01-6.99l-.19-23.8c-.02-2.12-.87-4.14-2.38-5.63Z"/>
    <path class="st0" d="M191.22,255.4c0-2.88-1.54-5.54-4.05-6.96l-20.71-11.74c-1.84-1.05-4.03-1.31-6.06-.75l-38,10.51c-3.43.95-5.82,4.05-5.86,7.61-.04,3.56,2.29,6.71,5.7,7.73l39.72,11.88c.75.22,1.52.34,2.29.34,1.35,0,2.7-.34,3.9-1.02l18.98-10.64c2.51-1.41,4.07-4.06,4.08-6.94Z"/>
    <path class="st0" d="M222.89,311.45c-2.49-1.45-5.57-1.44-8.05.02l-20.52,12.06c-1.82,1.07-3.15,2.83-3.68,4.88l-9.9,38.16c-.89,3.45.6,7.07,3.66,8.88,1.26.75,2.67,1.11,4.06,1.11,1.99,0,3.96-.74,5.48-2.18l30.15-28.46c1.57-1.48,2.48-3.54,2.5-5.7l.27-21.76c.04-2.88-1.48-5.56-3.98-7Z"/>
    <path class="st0" d="M317.71,328.24c-.5-2.1-1.83-3.92-3.69-5.02l-18.71-11.12c-2.47-1.47-5.55-1.5-8.05-.06-2.5,1.43-4.03,4.1-4.01,6.99l.19,23.8c.02,2.12.87,4.14,2.38,5.63l28.1,27.66c1.53,1.51,3.55,2.29,5.6,2.29,1.34,0,2.69-.34,3.92-1.03,3.1-1.75,4.67-5.33,3.85-8.8l-9.58-40.34Z"/>
    <path class="st0" d="M388.94,250.2l-39.72-11.88c-2.07-.62-4.3-.37-6.19.68l-18.98,10.64c-2.51,1.41-4.07,4.06-4.08,6.94,0,2.88,1.54,5.54,4.05,6.96l20.7,11.74c1.21.69,2.57,1.04,3.94,1.04.71,0,1.43-.1,2.13-.29l38-10.51c3.43-.95,5.82-4.05,5.86-7.61s-2.29-6.71-5.7-7.73Z"/>
    <path class="st0" d="M288.3,200.55c1.24.72,2.62,1.08,4.01,1.08s2.8-.37,4.05-1.1l20.52-12.06c1.82-1.07,3.15-2.83,3.68-4.88l9.9-38.16c.89-3.45-.6-7.07-3.66-8.88-3.07-1.81-6.96-1.38-9.54,1.07l-30.15,28.46c-1.57,1.48-2.48,3.54-2.5,5.7l-.27,21.76c-.04,2.88,1.48,5.56,3.98,7Z"/>
  </g>
</svg>